<svg width="146" height="28" viewBox="0 0 146 28" fill="none" xmlns="http://www.w3.org/2000/svg">
<g clip-path="url(#clip0_461_30)">
<path d="M139.243 27.9476C142.815 27.9476 145.711 25.1016 145.711 21.5908C145.711 18.08 142.815 15.2339 139.243 15.2339C135.671 15.2339 132.775 18.08 132.775 21.5908C132.775 25.1016 135.671 27.9476 139.243 27.9476Z" fill="#F65F33"/>
<path d="M139.354 27.9476C142.926 27.9476 145.822 25.1016 145.822 21.5908C145.822 18.08 142.926 15.2339 139.354 15.2339C135.782 15.2339 132.887 18.08 132.887 21.5908C132.887 25.1016 135.782 27.9476 139.354 27.9476Z" fill="#F65F33"/>
<path d="M48.2022 0.148926C48.2334 0.433301 47.5568 1.6408 44.3252 1.6408H30.3039V1.92955C31.2743 1.92955 32.0844 3.22893 32.0844 6.40518V19.1102C32.0844 22.2864 31.2787 23.5858 30.3039 23.5858V23.8745H38.868V23.5858C38.0624 23.5858 37.2522 22.2864 37.2522 19.1102V11.852H40.9646C44.1961 11.852 45.3446 14.9977 45.3446 15.982H45.6962V7.1008H45.3446C45.3134 7.89705 44.1961 11.2308 40.9646 11.2308H37.2522V2.23143H44.3252C47.5568 2.23143 49.5287 5.25018 49.7869 6.23455L50.1519 5.9633L48.5672 0.148926H48.2022Z" fill="white"/>
<path d="M51.287 1.92937C52.2573 1.92937 53.0674 3.22875 53.0674 6.405V19.11C53.0674 22.2863 52.2618 23.5856 51.287 23.5856V23.8744H59.8511V23.5856C59.041 23.5856 58.2353 22.2863 58.2353 19.11V6.405C58.2353 3.22875 59.041 1.92937 59.8511 1.92937V1.64062H51.287V1.92937Z" fill="white"/>
<path d="M63.6613 5.51719C63.6613 -1.17219 77.2821 1.09844 77.2821 9.37594L81.4707 6.45781C81.8713 6.17781 81.9514 5.62219 81.6354 5.25469C80.0196 3.39094 76.058 0.945312 70.1423 0.945312C62.9669 0.945312 60.2517 4.21781 60.2517 7.99781C60.2517 17.1809 78.9513 13.3659 78.9513 20.4841C78.9513 26.3159 64.8409 24.4259 64.8409 15.5447L60.2428 19.1716C59.9668 19.3903 59.9134 19.7884 60.136 20.0597C61.6805 21.9453 65.7623 24.5834 72.4035 24.5834C79.2851 24.5834 83.0019 21.5034 83.0019 17.7541C83.0019 8.88594 63.6613 12.6003 63.6613 5.51719Z" fill="white"/>
<path d="M100.014 1.925C100.825 1.925 101.63 3.22875 101.63 6.405V11.7075C101.63 12.1231 101.288 12.46 100.865 12.46H90.6313C90.2084 12.46 89.8657 12.1231 89.8657 11.7075V6.405C89.8657 3.22875 90.6713 1.925 91.4815 1.925V1.64062H82.9173V1.925C83.8877 1.925 84.6978 3.22875 84.6978 6.405V19.11C84.6978 22.2863 83.8921 23.5813 82.9173 23.5813V23.8744H91.4815V23.5813C90.6758 23.5813 89.8657 22.2863 89.8657 19.11V13.8075C89.8657 13.3919 90.2084 13.055 90.6313 13.055H100.865C101.288 13.055 101.63 13.3919 101.63 13.8075V19.11C101.63 22.2863 100.825 23.5813 100.014 23.5813V23.8744H108.579V23.5813C107.608 23.5813 106.803 22.2863 106.803 19.11V6.405C106.803 3.22875 107.608 1.925 108.579 1.925V1.64062H100.014V1.925Z" fill="white"/>
<path d="M25.1316 19.1187L16.5986 1.64062H10.723L11.4752 3.18063C11.8848 4.01625 11.8848 4.98312 11.4752 5.82312L4.98092 19.1187C3.65445 21.8531 0.961463 23.5944 0 23.5944V23.8875H7.57153V23.5944C6.7436 23.5944 4.21976 22.0106 5.58183 19.215L6.18274 17.9594C6.32518 17.6619 6.63677 17.4694 6.97951 17.4694H17.5601C18.0274 17.4694 18.4548 17.7275 18.6551 18.13C20.391 21.6431 24.0856 23.8831 28.1451 23.8831H29.4493V23.59C28.4166 23.5944 26.458 21.8225 25.1316 19.1187ZM17.5601 16.8963H7.16646C6.9528 16.8963 6.81482 16.6863 6.90384 16.5025L12.2943 5.4775C12.4056 5.24562 12.7527 5.25 12.8596 5.48187L17.9117 16.3713C18.0319 16.6163 17.8405 16.8963 17.5601 16.8963Z" fill="white"/>
<path d="M139.354 19.2981C138.063 19.2981 137.017 20.3262 137.017 21.595C137.017 22.365 137.405 23.0431 137.997 23.4587C136.933 22.8419 135.522 21.2275 134.489 19.1231L125.956 1.64062H120.081L120.833 3.18063C121.242 4.01625 121.242 4.98312 120.833 5.82312L114.343 19.1231C113.016 21.8575 110.323 23.5987 109.362 23.5987V23.8919H116.934V23.5987C116.106 23.5987 113.582 22.015 114.944 19.2194L115.545 17.9637C115.687 17.6662 115.999 17.4738 116.342 17.4738H126.922C127.389 17.4738 127.817 17.7319 128.017 18.1344C129.753 21.6475 133.448 23.8875 137.507 23.8875H139.288L139.256 23.8787C139.292 23.8787 139.323 23.8875 139.359 23.8875C140.65 23.8875 141.696 22.8594 141.696 21.5906C141.691 20.3262 140.645 19.2981 139.354 19.2981ZM126.918 16.8962H116.524C116.31 16.8962 116.172 16.6862 116.261 16.5025L121.652 5.4775C121.763 5.24562 122.11 5.25 122.217 5.48187L127.269 16.3712C127.389 16.6162 127.203 16.8962 126.918 16.8962Z" fill="white"/>
</g>
<defs>
<clipPath id="clip0_461_30">
<rect width="146" height="28" fill="white"/>
</clipPath>
</defs>
</svg>
