<?xml version="1.0" encoding="utf-8"?>
<!-- Generator: Adobe Illustrator 26.0.2, SVG Export Plug-In . SVG Version: 6.00 Build 0)  -->
<svg version="1.1" id="Layer_1" xmlns="http://www.w3.org/2000/svg" xmlns:xlink="http://www.w3.org/1999/xlink" x="0px" y="0px"
	 viewBox="0 0 435.71 181.43" style="enable-background:new 0 0 435.71 181.43;" xml:space="preserve">
<style type="text/css">
	.st0{fill:#F15A29;}
</style>
<circle class="st0" cx="367.82" cy="105.35" r="14.53"/>
<circle class="st0" cx="368.07" cy="105.35" r="14.53"/>
<g>
	<path d="M163.29,56.34c0.07,0.65-1.45,3.41-8.71,3.41h-31.5v0.66c2.18,0,4,2.97,4,10.23v29.04c0,7.26-1.81,10.23-4,10.23v0.66
		h19.24v-0.66c-1.81,0-3.63-2.97-3.63-10.23V83.09h8.34c7.26,0,9.84,7.19,9.84,9.44h0.79v-20.3h-0.79
		c-0.07,1.82-2.58,9.44-9.84,9.44h-8.34V61.1h15.89c7.26,0,11.69,6.9,12.27,9.15l0.82-0.62l-3.56-13.29H163.29z"/>
	<path d="M170.22,60.41c2.18,0,4,2.97,4,10.23v29.04c0,7.26-1.81,10.23-4,10.23v0.66h19.24v-0.66c-1.82,0-3.63-2.97-3.63-10.23
		V70.64c0-7.26,1.81-10.23,3.63-10.23v-0.66h-19.24V60.41z"/>
	<path d="M198.02,68.61c0-15.29,30.6-10.1,30.6,8.82l9.41-6.67c0.9-0.64,1.08-1.91,0.37-2.75c-3.63-4.26-12.53-9.85-25.82-9.85
		c-16.12,0-22.22,7.48-22.22,16.12c0,20.99,42.01,12.27,42.01,28.54c0,13.33-31.7,9.01-31.7-11.29l-10.33,8.29
		c-0.62,0.5-0.74,1.41-0.24,2.03c3.47,4.31,12.64,10.34,27.56,10.34c15.46,0,23.81-7.04,23.81-15.61
		C241.47,76.31,198.02,84.8,198.02,68.61z"/>
	<path d="M279.69,60.4c1.82,0,3.63,2.98,3.63,10.24v12.12c0,0.95-0.77,1.72-1.72,1.72h-22.99c-0.95,0-1.72-0.77-1.72-1.72V70.64
		c0-7.26,1.81-10.24,3.63-10.24v-0.65h-19.24v0.65c2.18,0,4,2.98,4,10.24v29.04c0,7.26-1.81,10.22-4,10.22v0.67h19.24v-0.67
		c-1.81,0-3.63-2.96-3.63-10.22V87.56c0-0.95,0.77-1.72,1.72-1.72h22.99c0.95,0,1.72,0.77,1.72,1.72v12.12
		c0,7.26-1.81,10.22-3.63,10.22v0.67h19.24v-0.67c-2.18,0-3.99-2.96-3.99-10.22V70.64c0-7.26,1.81-10.24,3.99-10.24v-0.65h-19.24
		V60.4z"/>
	<path d="M111.46,99.7L92.29,59.75h-13.2l1.69,3.52c0.92,1.91,0.92,4.12,0,6.04L66.19,99.7c-2.98,6.25-9.03,10.23-11.19,10.23v0.67
		h17.01v-0.67c-1.86,0-7.53-3.62-4.47-10.01l1.35-2.87c0.32-0.68,1.02-1.12,1.79-1.12h23.77c1.05,0,2.01,0.59,2.46,1.51
		c3.9,8.03,12.2,13.15,21.32,13.15h2.93v-0.67C118.84,109.93,114.44,105.88,111.46,99.7z M94.45,94.62H71.1
		c-0.48,0-0.79-0.48-0.59-0.9l12.11-25.2c0.25-0.53,1.03-0.52,1.27,0.01l11.35,24.89C95.51,93.98,95.08,94.62,94.45,94.62z"/>
	<path d="M368.07,100.11c-2.9,0-5.25,2.35-5.25,5.25c0,1.76,0.87,3.31,2.2,4.26c-2.39-1.41-5.56-5.1-7.88-9.91l-19.17-39.96h-13.2
		l1.69,3.52c0.92,1.91,0.92,4.12,0,6.04l-14.58,30.4c-2.98,6.25-9.03,10.23-11.19,10.23v0.67h17.01v-0.67
		c-1.86,0-7.53-3.62-4.47-10.01l1.35-2.87c0.32-0.68,1.02-1.12,1.79-1.12h23.77c1.05,0,2.01,0.59,2.46,1.51
		c3.9,8.03,12.2,13.15,21.32,13.15h4l-0.07-0.02c0.08,0,0.15,0.02,0.23,0.02c2.9,0,5.25-2.35,5.25-5.25
		C373.32,102.46,370.97,100.11,368.07,100.11z M340.13,94.62h-23.35c-0.48,0-0.79-0.48-0.59-0.9l12.11-25.2
		c0.25-0.53,1.03-0.52,1.27,0.01l11.35,24.89C341.19,93.98,340.77,94.62,340.13,94.62z"/>
</g>
</svg>
