<svg width="20" height="18" viewBox="0 0 20 18" fill="none" xmlns="http://www.w3.org/2000/svg">
<path d="M1.8827 10.5688C1.5608 9.99657 1.39985 9.71044 1.33678 9.40705C1.28097 9.13855 1.28097 8.86145 1.33678 8.59295C1.39985 8.28956 1.5608 8.00343 1.8827 7.43116L4.5827 2.63116C4.91674 2.03731 5.08376 1.74038 5.32004 1.52426C5.52908 1.33305 5.77636 1.18843 6.0455 1.09998C6.34971 1 6.69038 1 7.37174 1H12.6287C13.3101 1 13.6507 1 13.955 1.09998C14.2241 1.18843 14.4714 1.33305 14.6804 1.52426C14.9167 1.74038 15.0837 2.03731 15.4178 2.63116L18.1178 7.43116C18.4397 8.00343 18.6006 8.28956 18.6637 8.59295C18.7195 8.86145 18.7195 9.13855 18.6637 9.40705C18.6006 9.71044 18.4397 9.99657 18.1178 10.5688L15.4178 15.3688C15.0837 15.9627 14.9167 16.2596 14.6804 16.4757C14.4714 16.667 14.2241 16.8116 13.955 16.9C13.6507 17 13.3101 17 12.6287 17H7.37174C6.69038 17 6.3497 17 6.0455 16.9C5.77636 16.8116 5.52908 16.667 5.32004 16.4757C5.08376 16.2596 4.91674 15.9627 4.5827 15.3688L1.8827 10.5688Z" stroke="#E76464" stroke-width="2" stroke-linecap="round" stroke-linejoin="round"/>
</svg>
