<svg width="24" height="24" viewBox="0 0 24 24" fill="none" xmlns="http://www.w3.org/2000/svg">
<rect width="24" height="24" fill="#1E1E1E"/>
<rect width="360" height="689" transform="translate(-320 -18)" fill="#F4F5F7"/>
<rect width="360" height="60" transform="translate(-320 -18)" fill="#F4F5F7"/>
<g clip-path="url(#clip0_1_2294)">
<path d="M0 12C0 5.37258 5.37258 0 12 0C18.6274 0 24 5.37258 24 12C24 18.6274 18.6274 24 12 24C5.37258 24 0 18.6274 0 12Z" fill="#105FF9"/>
<path d="M18 7.20857L16.7914 6L12 10.7914L7.20857 6L6 7.20857L10.7914 12L6 16.7914L7.20857 18L12 13.2086L16.7914 18L18 16.7914L13.2086 12L18 7.20857Z" fill="white"/>
</g>
<defs>
<clipPath id="clip0_1_2294">
<rect width="24" height="24" fill="white"/>
</clipPath>
</defs>
</svg>
