<svg width="24" height="24" viewBox="0 0 24 24" fill="none" xmlns="http://www.w3.org/2000/svg">
<rect width="24" height="24" fill="#1E1E1E"/>
<path d="M-966 -465C-966 -471.627 -960.627 -477 -954 -477H741C747.627 -477 753 -471.627 753 -465V1077C753 1083.63 747.627 1089 741 1089H-954C-960.627 1089 -966 1083.63 -966 1077V-465Z" fill="#34363A"/>
<rect width="360" height="947" transform="translate(-304 -132)" fill="#F4F5F7"/>
<rect x="-287.5" y="-9.5" width="327" height="43" rx="11.5" fill="#ECF0F5"/>
<g clip-path="url(#clip0_1_2294)">
<path d="M0 12C0 5.37258 5.37258 0 12 0C18.6274 0 24 5.37258 24 12C24 18.6274 18.6274 24 12 24C5.37258 24 0 18.6274 0 12Z" fill="#BCC5D7"/>
<path d="M18 7.20857L16.7914 6L12 10.7914L7.20857 6L6 7.20857L10.7914 12L6 16.7914L7.20857 18L12 13.2086L16.7914 18L18 16.7914L13.2086 12L18 7.20857Z" fill="white"/>
</g>
<rect x="-287.5" y="-9.5" width="327" height="43" rx="11.5" stroke="#105FF9"/>
<path d="M-954 -475H741V-479H-954V-475ZM751 -465V1077H755V-465H751ZM741 1087H-954V1091H741V1087ZM-964 1077V-465H-968V1077H-964ZM-954 1087C-959.523 1087 -964 1082.52 -964 1077H-968C-968 1084.73 -961.732 1091 -954 1091V1087ZM751 1077C751 1082.52 746.523 1087 741 1087V1091C748.732 1091 755 1084.73 755 1077H751ZM741 -475C746.523 -475 751 -470.523 751 -465H755C755 -472.732 748.732 -479 741 -479V-475ZM-954 -479C-961.732 -479 -968 -472.732 -968 -465H-964C-964 -470.523 -959.523 -475 -954 -475V-479Z" fill="#030405"/>
<defs>
<clipPath id="clip0_1_2294">
<rect width="24" height="24" fill="white"/>
</clipPath>
</defs>
</svg>
