<svg width="18" height="18" viewBox="0 0 18 18" fill="none" xmlns="http://www.w3.org/2000/svg">
<rect width="18" height="18" fill="#1E1E1E"/>
<rect width="360" height="689" transform="translate(-19 -374)" fill="#F4F5F7"/>
<rect width="360" height="58" transform="translate(-19 -20)" fill="white"/>
<path d="M1 17L17 17M14 4H14.5C14.9647 4 15.197 4 15.3902 4.03843C16.1836 4.19624 16.8038 4.81644 16.9616 5.60982C17 5.80302 17 6.03535 17 6.5C17 6.96466 17 7.19698 16.9616 7.39018C16.8038 8.18356 16.1836 8.80376 15.3902 8.96157C15.197 9 14.9647 9 14.5 9H14M7.5 14C6.10548 14 5.40821 14 4.83278 13.8619C3.00453 13.4229 1.57708 11.9955 1.13815 10.1672C1 9.59179 1 8.89453 1 7.5L1 4.2C1 3.0799 1 2.51984 1.21799 2.09202C1.40973 1.7157 1.71569 1.40974 2.09202 1.21799C2.51984 1 3.0799 1 4.2 1L10.8 1C11.9201 1 12.4802 1 12.908 1.21799C13.2843 1.40973 13.5903 1.71569 13.782 2.09202C14 2.51984 14 3.07989 14 4.2V7.5C14 8.89453 14 9.59179 13.8619 10.1672C13.4229 11.9955 11.9955 13.4229 10.1672 13.8619C9.59179 14 8.89453 14 7.5 14Z" stroke="#0F0F0F" stroke-width="2" stroke-linecap="round" stroke-linejoin="round"/>
</svg>
