<svg width="24" height="24" viewBox="0 0 24 24" fill="none" xmlns="http://www.w3.org/2000/svg">
<rect width="24" height="24" fill="#1E1E1E"/>
<path d="M-519 -583C-519 -589.627 -513.627 -595 -507 -595H2676C2682.63 -595 2688 -589.627 2688 -583V1873C2688 1879.63 2682.63 1885 2676 1885H-507C-513.627 1885 -519 1879.63 -519 1873V-583Z" fill="#34363A"/>
<g clip-path="url(#clip0_1_2294)">
<rect width="360" height="1196" transform="translate(-304 -330)" fill="#F4F5F7"/>
<rect x="-16" y="-16" width="56" height="56" rx="16" fill="white"/>
<path d="M15 12C15 13.6569 13.6569 15 12 15C10.3431 15 9 13.6569 9 12C9 10.3431 10.3431 9 12 9C13.6569 9 15 10.3431 15 12Z" stroke="#0F0F0F" stroke-width="2" stroke-linecap="round" stroke-linejoin="round"/>
</g>
<path d="M-507 -593H2676V-597H-507V-593ZM2686 -583V1873H2690V-583H2686ZM2676 1883H-507V1887H2676V1883ZM-517 1873V-583H-521V1873H-517ZM-507 1883C-512.523 1883 -517 1878.52 -517 1873H-521C-521 1880.73 -514.732 1887 -507 1887V1883ZM2686 1873C2686 1878.52 2681.52 1883 2676 1883V1887C2683.73 1887 2690 1880.73 2690 1873H2686ZM2676 -593C2681.52 -593 2686 -588.523 2686 -583H2690C2690 -590.732 2683.73 -597 2676 -597V-593ZM-507 -597C-514.732 -597 -521 -590.732 -521 -583H-517C-517 -588.523 -512.523 -593 -507 -593V-597Z" fill="#030405"/>
<path d="M44 10.5C43.1716 10.5 42.5 11.1716 42.5 12C42.5 12.8284 43.1716 13.5 44 13.5V10.5ZM-344 -2650.34C-344 -2649.51 -342.985 -2648.93 -342.268 -2649.34L-330.732 -2656C-330.015 -2656.41 -330.015 -2657.59 -330.732 -2658L-342.268 -2664.66C-342.985 -2665.07 -344 -2664.49 -344 -2663.66V-2650.34ZM44 13.5H82V10.5H44V13.5ZM107.5 -12V-685H104.5V-12H107.5ZM82 -710.5H-410V-707.5H82V-710.5ZM-432.5 -733V-2633H-435.5V-733H-432.5ZM-410 -2655.5H-342.5V-2658.5H-410V-2655.5ZM-432.5 -2633C-432.5 -2645.43 -422.426 -2655.5 -410 -2655.5V-2658.5C-424.083 -2658.5 -435.5 -2647.08 -435.5 -2633H-432.5ZM-410 -710.5C-422.426 -710.5 -432.5 -720.574 -432.5 -733H-435.5C-435.5 -718.917 -424.083 -707.5 -410 -707.5V-710.5ZM107.5 -685C107.5 -699.083 96.0833 -710.5 82 -710.5V-707.5C94.4264 -707.5 104.5 -697.426 104.5 -685H107.5ZM82 13.5C96.0833 13.5 107.5 2.08325 107.5 -12H104.5C104.5 0.426514 94.4264 10.5 82 10.5V13.5Z" fill="#D0D6D8"/>
<defs>
<clipPath id="clip0_1_2294">
<rect width="360" height="1196" fill="white" transform="translate(-304 -330)"/>
</clipPath>
</defs>
</svg>
