<svg width="16" height="20" viewBox="0 0 16 20" fill="none" xmlns="http://www.w3.org/2000/svg">
<rect width="16" height="20" fill="#1E1E1E"/>
<g clip-path="url(#clip0_1_2294)">
<rect width="360" height="1356" transform="translate(-20 -514)" fill="#F4F5F7"/>
<rect width="360" height="706" transform="translate(-20 -396)" fill="white"/>
<path d="M8 19C11.5 15.4 15 12.1764 15 8.2C15 4.22355 11.866 1 8 1C4.13401 1 1 4.22355 1 8.2C1 12.1764 4.5 15.4 8 19Z" stroke="#105FF9" stroke-width="2" stroke-linecap="round" stroke-linejoin="round"/>
<path d="M8 11C9.65685 11 11 9.65685 11 8C11 6.34315 9.65685 5 8 5C6.34315 5 5 6.34315 5 8C5 9.65685 6.34315 11 8 11Z" stroke="#105FF9" stroke-width="2" stroke-linecap="round" stroke-linejoin="round"/>
</g>
<defs>
<clipPath id="clip0_1_2294">
<rect width="360" height="1356" fill="white" transform="translate(-20 -514)"/>
</clipPath>
</defs>
</svg>
