<svg width="12" height="14" viewBox="0 0 12 14" fill="none" xmlns="http://www.w3.org/2000/svg">
<rect width="12" height="14" fill="#1E1E1E"/>
<g clip-path="url(#clip0_1_2294)">
<rect width="360" height="2595" transform="translate(-124 -437)" fill="#F4F5F7"/>
<rect width="360" height="122" transform="translate(-124 -89)" fill="white"/>
<path d="M5.99999 13C8.33333 10.6 10.6667 8.45097 10.6667 5.8C10.6667 3.14903 8.57732 1 5.99999 1C3.42267 1 1.33333 3.14903 1.33333 5.8C1.33333 8.45097 3.66666 10.6 5.99999 13Z" stroke="#20242D" stroke-linecap="round" stroke-linejoin="round"/>
<path d="M5.99999 7.66667C7.10456 7.66667 7.99999 6.77124 7.99999 5.66667C7.99999 4.5621 7.10456 3.66667 5.99999 3.66667C4.89543 3.66667 3.99999 4.5621 3.99999 5.66667C3.99999 6.77124 4.89543 7.66667 5.99999 7.66667Z" stroke="#20242D" stroke-linecap="round" stroke-linejoin="round"/>
</g>
<defs>
<clipPath id="clip0_1_2294">
<rect width="360" height="2595" fill="white" transform="translate(-124 -437)"/>
</clipPath>
</defs>
</svg>
