<svg width="15" height="14" viewBox="0 0 15 14" fill="none" xmlns="http://www.w3.org/2000/svg">
<path d="M4.79289 8.95956C4.40237 9.35008 4.40237 9.98325 4.79289 10.3738C5.18342 10.7643 5.81658 10.7643 6.20711 10.3738L4.79289 8.95956ZM8.16667 7L8.87377 7.70711C9.2643 7.31658 9.2643 6.68342 8.87377 6.29289L8.16667 7ZM6.20711 3.62623C5.81658 3.2357 5.18342 3.2357 4.79289 3.62623C4.40237 4.01675 4.40237 4.64992 4.79289 5.04044L6.20711 3.62623ZM1.5 6C0.947715 6 0.5 6.44772 0.5 7C0.5 7.55228 0.947715 8 1.5 8V6ZM7.5 12C6.94772 12 6.5 12.4477 6.5 13C6.5 13.5523 6.94772 14 7.5 14V12ZM7.5 0C6.94772 0 6.5 0.447715 6.5 1C6.5 1.55228 6.94772 2 7.5 2V0ZM6.20711 10.3738L8.87377 7.70711L7.45956 6.29289L4.79289 8.95956L6.20711 10.3738ZM8.87377 6.29289L6.20711 3.62623L4.79289 5.04044L7.45956 7.70711L8.87377 6.29289ZM1.5 8H8.16667V6H1.5V8ZM12.5 7C12.5 9.76142 10.2614 12 7.5 12V14C11.366 14 14.5 10.866 14.5 7H12.5ZM7.5 2C10.2614 2 12.5 4.23858 12.5 7H14.5C14.5 3.13401 11.366 0 7.5 0V2Z" fill="#105FF9"/>
</svg>
