<svg width="18" height="18" viewBox="0 0 18 18" fill="none" xmlns="http://www.w3.org/2000/svg">
<rect width="18" height="18" fill="#1E1E1E"/>
<rect width="360" height="689" transform="translate(-19 -200)" fill="#F4F5F7"/>
<rect width="360" height="58" transform="translate(-19 -20)" fill="white"/>
<path d="M10.4117 12L9.59475 12.5767L9.59572 12.578L10.4117 12ZM10.4642 11.9256L11.2812 12.5023L11.2812 12.5023L10.4642 11.9256ZM13.1377 17.578C13.4569 18.0287 14.081 18.1353 14.5317 17.816C14.9824 17.4968 15.0889 16.8726 14.7697 16.422L13.1377 17.578ZM15.7891 12.0702L16.6362 11.5387V11.5387L15.7891 12.0702ZM12.4212 9.73946L12.7793 10.6732L12.4212 9.73946ZM13.9537 9.78108L14.3618 8.86818H14.3618L13.9537 9.78108ZM17 17V18C17.5522 18 18 17.5523 18 17H17ZM0.999146 17L-0.000854433 16.9997C-0.000925899 17.265 0.104399 17.5194 0.291944 17.707C0.479488 17.8946 0.733882 18 0.999146 18V17ZM16.7553 13.61L17.6023 13.0785L16.7553 13.61ZM16.924 13.9055L17.8481 13.5232L16.924 13.9055ZM17 14.4604L18 14.4604L17 14.4604ZM16.9859 14.1204L16 14.2877L16.9859 14.1204ZM1.25651 13.6035L0.416944 13.0602L1.25651 13.6035ZM1.07963 13.9041L1.99987 14.2954L1.07963 13.9041ZM0.999826 14.4723L1.99983 14.4725L0.999826 14.4723ZM1.01471 14.1238L0.0295492 13.9522L1.01471 14.1238ZM7.54121 7.93345L8.35818 7.35677L7.54121 7.93345ZM6.57439 6.85289L6.93633 5.92069L6.57439 6.85289ZM4.89075 7.98694L5.73032 8.5302L4.89075 7.98694ZM5.8132 6.86825L6.21245 7.78509L5.8132 6.86825ZM6.72425 8.51014L9.59475 12.5767L11.2287 11.4233L8.35818 7.35677L6.72425 8.51014ZM11.2287 12.5767L11.2812 12.5023L9.64725 11.3489L9.59475 11.4233L11.2287 12.5767ZM4.05118 7.44369L0.416944 13.0602L2.09608 14.1467L5.73032 8.5302L4.05118 7.44369ZM9.59572 12.578L13.1377 17.578L14.7697 16.422L11.2277 11.422L9.59572 12.578ZM14.9421 12.6017L15.9082 14.1415L17.6023 13.0785L16.6362 11.5387L14.9421 12.6017ZM11.2812 12.5023C11.7555 11.8304 12.0726 11.3828 12.3387 11.0703C12.6035 10.7593 12.7291 10.6924 12.7793 10.6732L12.0632 8.80576C11.546 9.00409 11.1562 9.37405 10.816 9.77369C10.477 10.1718 10.0994 10.7084 9.64725 11.3489L11.2812 12.5023ZM16.6362 11.5387C16.2195 10.8747 15.8716 10.3183 15.5547 9.90238C15.2366 9.48486 14.8675 9.09429 14.3618 8.86818L13.5455 10.694C13.5946 10.7159 13.7163 10.7896 13.9638 11.1144C14.2125 11.4409 14.5049 11.9051 14.9421 12.6017L16.6362 11.5387ZM12.7793 10.6732C13.0273 10.5781 13.303 10.5855 13.5455 10.694L14.3618 8.86818C13.6343 8.54289 12.8073 8.52043 12.0632 8.80576L12.7793 10.6732ZM16 3C16 3.55229 15.5522 4 15 4V6C16.6568 6 18 4.65685 18 3H16ZM15 4C14.4477 4 14 3.55228 14 3H12C12 4.65685 13.3431 6 15 6V4ZM14 3C14 2.44772 14.4477 2 15 2V0C13.3431 0 12 1.34315 12 3H14ZM15 2C15.5522 2 16 2.44771 16 3H18C18 1.34315 16.6568 0 15 0V2ZM18 17L18 14.4604L16 14.4604L16 17L18 17ZM1.99915 17.0003L1.99983 14.4725L-0.000174046 14.472L-0.000854433 16.9997L1.99915 17.0003ZM0.999146 18H17V16H0.999146V18ZM15.9082 14.1415C15.957 14.2193 15.9809 14.2577 15.9975 14.2861C16.0106 14.3087 16.0068 14.3042 16 14.2877L17.8481 13.5232C17.7762 13.3496 17.676 13.1959 17.6023 13.0785L15.9082 14.1415ZM18 14.4604C18 14.3218 18.0032 14.1383 17.9718 13.9531L16 14.2877C15.997 14.2702 15.9979 14.2643 15.9987 14.2904C15.9998 14.3233 16 14.3685 16 14.4604L18 14.4604ZM16 14.2877L17.9718 13.9531C17.9467 13.8056 17.9052 13.6614 17.8481 13.5232L16 14.2877ZM0.416944 13.0602C0.339758 13.1795 0.23471 13.3356 0.159387 13.5127L1.99987 14.2954C1.99272 14.3123 1.98866 14.3168 2.00246 14.2938C2.01983 14.2648 2.04491 14.2258 2.09608 14.1467L0.416944 13.0602ZM1.99983 14.4725C1.99985 14.3783 1.99999 14.332 2.00115 14.2982C2.00206 14.2714 2.00301 14.2774 1.99987 14.2954L0.0295492 13.9522C-0.00348437 14.1418 -0.000135839 14.3299 -0.000174046 14.472L1.99983 14.4725ZM0.159387 13.5127C0.0994154 13.6538 0.0558501 13.8012 0.0295492 13.9522L1.99987 14.2954L0.159387 13.5127ZM8.35818 7.35677C8.14066 7.04861 7.93907 6.76133 7.75329 6.54307C7.56577 6.32278 7.30758 6.06483 6.93633 5.92069L6.21245 7.78509C6.12232 7.7501 6.11897 7.70863 6.23031 7.83943C6.34337 7.97226 6.48464 8.17069 6.72425 8.51014L8.35818 7.35677ZM5.73032 8.5302C5.95604 8.18136 6.08919 7.97739 6.1968 7.8401C6.30277 7.70492 6.3011 7.74649 6.21245 7.78509L5.41394 5.95141C5.0488 6.11042 4.80123 6.37857 4.62276 6.60625C4.44593 6.83183 4.2561 7.127 4.05118 7.44369L5.73032 8.5302ZM6.93633 5.92069C6.44466 5.72979 5.8975 5.74084 5.41394 5.95141L6.21245 7.78509L6.93633 5.92069Z" fill="#0F0F0F"/>
</svg>
