<svg width="16" height="20" viewBox="0 0 16 20" fill="none" xmlns="http://www.w3.org/2000/svg">
<rect width="16" height="20" fill="#1E1E1E"/>
<g clip-path="url(#clip0_1_2294)">
<rect width="360" height="1356" transform="translate(-20 -394)" fill="#F4F5F7"/>
<rect width="360" height="706" transform="translate(-20 -276)" fill="white"/>
<path d="M8.5 3.00002V16.5M8.5 16.5C8.5 17.8807 6.933 19 5 19C3.067 19 1.5 17.8807 1.5 16.5C1.5 15.1193 3.067 14 5 14C6.933 14 8.5 15.1193 8.5 16.5ZM9.04702 2.81768L13.447 1.35101C13.8025 1.23251 13.9803 1.17325 14.1218 1.20878C14.2456 1.23988 14.3529 1.31719 14.4216 1.42485C14.5 1.54785 14.5 1.73522 14.5 2.10996V5.42341C14.5 5.63075 14.5 5.73443 14.4653 5.82264C14.4347 5.90054 14.385 5.9695 14.3208 6.02319C14.248 6.084 14.1497 6.11679 13.953 6.18235L9.55298 7.64902C9.19747 7.76752 9.01972 7.82678 8.87823 7.79125C8.75438 7.76015 8.64712 7.68284 8.57845 7.57518C8.5 7.45218 8.5 7.26481 8.5 6.89007V3.57662C8.5 3.36928 8.5 3.2656 8.53469 3.17739C8.56533 3.09949 8.61503 3.03054 8.67925 2.97684C8.75196 2.91603 8.85031 2.88324 9.04702 2.81768Z" stroke="#9084DB" stroke-width="2" stroke-linecap="round" stroke-linejoin="round"/>
</g>
<defs>
<clipPath id="clip0_1_2294">
<rect width="360" height="1356" fill="white" transform="translate(-20 -394)"/>
</clipPath>
</defs>
</svg>
