<svg width="16" height="16" viewBox="0 0 16 16" fill="none" xmlns="http://www.w3.org/2000/svg">
<rect width="16" height="16" fill="#1E1E1E"/>
<rect width="360" height="689" transform="translate(-320 -143)" fill="#F4F5F7"/>
<rect width="360" height="58" transform="translate(-320 -21)" fill="white"/>
<path fill-rule="evenodd" clip-rule="evenodd" d="M8 0C12.4181 0 16 3.58192 16 8C16 12.4181 12.4181 16 8 16C3.58192 16 0 12.4181 0 8C0 3.58213 3.58213 0 8 0ZM3.87339 8.80296C2.9395 7.79406 4.47377 6.37327 5.40828 7.3828L6.92133 9.01668L10.5589 4.72805C11.4491 3.67648 13.0496 5.0315 12.1598 6.08264L7.78082 11.2455C7.36788 11.7309 6.64078 11.7916 6.19023 11.3049L3.87339 8.80296Z" fill="#105FF9"/>
</svg>
