<svg width="42" height="42" viewBox="0 0 42 42" fill="none" xmlns="http://www.w3.org/2000/svg">
<rect width="42" height="42" fill="#1E1E1E"/>
<rect width="360" height="2450" transform="translate(-16 -510)" fill="#F4F5F7"/>
<rect width="360" height="824" transform="translate(-16 -392)" fill="white"/>
<g clip-path="url(#clip0_1_2294)">
<path d="M0 21C0 9.40202 9.40202 0 21 0H307C318.598 0 328 9.40202 328 21C328 32.598 318.598 42 307 42H21C9.40202 42 0 32.598 0 21Z" fill="#EBF1F8"/>
<circle cx="21" cy="21" r="21" fill="#105FF9"/>
<path d="M30 21C30 25.9706 25.9706 30 21 30C16.0294 30 12 25.9706 12 21C12 16.0294 16.0294 12 21 12C25.9706 12 30 16.0294 30 21Z" stroke="white" stroke-width="2" stroke-linecap="round" stroke-linejoin="round"/>
<path d="M24.0015 20.3344C24.3354 20.5569 24.5023 20.6682 24.5605 20.8085C24.6113 20.9311 24.6113 21.0689 24.5605 21.1915C24.5023 21.3318 24.3354 21.4431 24.0015 21.6656L20.2438 24.1708C19.8397 24.4402 19.6377 24.5749 19.4702 24.5649C19.3243 24.5561 19.1894 24.484 19.1012 24.3674C19 24.2336 19 23.9908 19 23.5052V18.4948C19 18.0092 19 17.7664 19.1012 17.6326C19.1894 17.516 19.3243 17.4439 19.4702 17.4351C19.6377 17.4251 19.8397 17.5598 20.2438 17.8292L24.0015 20.3344Z" stroke="white" stroke-width="2" stroke-linecap="round" stroke-linejoin="round"/>
</g>
<defs>
<clipPath id="clip0_1_2294">
<rect width="328" height="68" fill="white" transform="translate(0 -26)"/>
</clipPath>
</defs>
</svg>
