<svg width="319" height="319" viewBox="0 0 319 319" fill="none" xmlns="http://www.w3.org/2000/svg">
<path d="M188.4 33.3371C188.4 23.2076 180.192 15 170.063 15H148.952C138.808 15 130.6 23.2076 130.6 33.3371C130.6 41.6892 124.878 48.8563 117.089 51.9197C115.861 52.411 114.633 52.9312 113.433 53.4514C105.76 56.7749 96.6425 55.7635 90.718 49.8534C87.2795 46.4174 82.6174 44.4872 77.7563 44.4872C72.8953 44.4872 68.2332 46.4174 64.7947 49.8534L49.8534 64.7947C46.4174 68.2332 44.4872 72.8953 44.4872 77.7563C44.4872 82.6174 46.4174 87.2795 49.8534 90.718C55.7779 96.6425 56.7894 105.746 53.437 113.433C52.9103 114.643 52.4045 115.862 51.9197 117.089C48.8563 124.878 41.6892 130.6 33.3371 130.6C23.2076 130.6 15 138.808 15 148.937V170.063C15 180.192 23.2076 188.4 33.3371 188.4C41.6892 188.4 48.8563 194.122 51.9197 201.911C52.411 203.139 52.9312 204.367 53.437 205.567C56.7749 213.24 55.7635 222.358 49.8534 228.282C46.4174 231.72 44.4872 236.383 44.4872 241.244C44.4872 246.105 46.4174 250.767 49.8534 254.205L64.7947 269.147C68.2332 272.583 72.8953 274.513 77.7563 274.513C82.6174 274.513 87.2795 272.583 90.718 269.147C96.6425 263.222 105.746 262.211 113.433 265.549C114.633 266.083 115.861 266.589 117.089 267.08C124.878 270.144 130.6 277.311 130.6 285.663C130.6 295.792 138.808 304 148.937 304H170.063C180.192 304 188.4 295.792 188.4 285.663C188.4 277.311 194.122 270.144 201.911 267.066C203.139 266.589 204.367 266.083 205.567 265.563C213.24 262.211 222.358 263.237 228.268 269.147C229.97 270.85 231.992 272.201 234.217 273.123C236.443 274.045 238.828 274.52 241.236 274.52C243.645 274.52 246.03 274.045 248.255 273.123C250.481 272.201 252.502 270.85 254.205 269.147L269.147 254.205C272.583 250.767 274.513 246.105 274.513 241.244C274.513 236.383 272.583 231.72 269.147 228.282C263.222 222.358 262.211 213.254 265.549 205.567C266.083 204.367 266.589 203.139 267.08 201.911C270.144 194.122 277.311 188.4 285.663 188.4C295.792 188.4 304 180.192 304 170.063V148.952C304 138.822 295.792 130.614 285.663 130.614C277.311 130.614 270.144 124.892 267.066 117.104C266.582 115.876 266.076 114.657 265.549 113.448C262.225 105.775 263.237 96.657 269.147 90.7325C272.583 87.294 274.513 82.6318 274.513 77.7708C274.513 72.9098 272.583 68.2476 269.147 64.8091L254.205 49.8679C250.767 46.4318 246.105 44.5017 241.244 44.5017C236.383 44.5017 231.72 46.4318 228.282 49.8679C222.358 55.7924 213.254 56.8039 205.567 53.4659C204.357 52.9343 203.138 52.4236 201.911 51.9342C194.122 48.8564 188.4 41.6891 188.4 33.3515V33.3371Z" stroke="black" stroke-width="30"/>
<path d="M207 160C207 172.465 202.048 184.42 193.234 193.234C184.42 202.048 172.465 207 160 207C147.535 207 135.58 202.048 126.766 193.234C117.952 184.42 113 172.465 113 160C113 147.535 117.952 135.58 126.766 126.766C135.58 117.952 147.535 113 160 113C172.465 113 184.42 117.952 193.234 126.766C202.048 135.58 207 147.535 207 160V160Z" stroke="black" stroke-width="35"/>
</svg>
