<svg width="24" height="26" viewBox="0 0 24 26" fill="none" xmlns="http://www.w3.org/2000/svg">
<path d="M11.625 0.625C8.5184 0.625 6 3.1434 6 6.25C6 9.3566 8.5184 11.875 11.625 11.875C14.7316 11.875 17.25 9.3566 17.25 6.25C17.25 3.1434 14.7316 0.625 11.625 0.625Z" fill="#105FF9"/>
<path d="M5.625 14.875C2.5184 14.875 0 17.3934 0 20.5V22.2824C0 23.4123 0.818825 24.3756 1.93391 24.5577C8.35215 25.6056 14.8979 25.6056 21.3161 24.5577C22.4312 24.3756 23.25 23.4123 23.25 22.2824V20.5C23.25 17.3934 20.7316 14.875 17.625 14.875H17.1137C16.837 14.875 16.562 14.9188 16.2989 15.0047L15.0006 15.4286C12.8072 16.1448 10.4428 16.1448 8.24938 15.4286L6.95111 15.0047C6.68804 14.9188 6.41304 14.875 6.1363 14.875H5.625Z" fill="#105FF9"/>
</svg>
