<svg width="22" height="14" viewBox="0 0 22 14" fill="none" xmlns="http://www.w3.org/2000/svg">
<rect width="22" height="14" fill="#1E1E1E"/>
<rect width="360" height="2725" transform="translate(-37 -883)" fill="#F4F5F7"/>
<rect width="360" height="1638" transform="translate(-37 -765)" fill="white"/>
<rect x="-21" y="-25" width="328" height="164" rx="8" fill="#E8F2F7"/>
<g clip-path="url(#clip0_1_2294)">
<path d="M3.29451 11.0777C2.6998 12.2671 3.56471 13.6666 4.89451 13.6666C5.57208 13.6666 6.19149 13.2838 6.49451 12.6777L8.55378 8.55918C8.62902 8.40871 8.69458 8.25454 8.74673 8.0946C8.95138 7.467 9.47943 5.73377 9.5 4.5C9.50717 4.07008 9.45468 3.58321 9.37296 3.09776C9.08937 1.41293 7.51941 0.333252 5.81088 0.333252H4.66675C2.45761 0.333252 0.666748 2.12411 0.666748 4.33325C0.666748 6.54239 2.45761 8.33325 4.66675 8.33325L3.29451 11.0777ZM14.9612 11.0777C14.3665 12.2671 15.2314 13.6666 16.5612 13.6666C17.2387 13.6666 17.8582 13.2838 18.1612 12.6777L20.3325 8.33512C20.3331 8.33387 20.3331 8.33396 20.3337 8.33271C20.3536 8.29274 21.4652 6.05039 21.5 4.5C21.5126 3.938 21.3877 3.28878 21.2154 2.67258C20.8031 1.19804 19.3616 0.333252 17.8305 0.333252H16.3334C14.1243 0.333252 12.3334 2.12411 12.3334 4.33325C12.3334 6.54239 14.1243 8.33325 16.3334 8.33325L14.9612 11.0777Z" fill="#105FF9"/>
</g>
<defs>
<clipPath id="clip0_1_2294">
<rect width="32" height="32" fill="white" transform="translate(-5 -9)"/>
</clipPath>
</defs>
</svg>
