<svg width="18" height="20" viewBox="0 0 18 20" fill="none" xmlns="http://www.w3.org/2000/svg">
<rect width="18" height="20" fill="#1E1E1E"/>
<rect width="360" height="689" transform="translate(-19 -257)" fill="#F4F5F7"/>
<rect width="360" height="58" transform="translate(-19 -19)" fill="white"/>
<path d="M3 19C3 19.5523 3.44772 20 4 20C4.55228 20 5 19.5523 5 19H3ZM5 1C5 0.447715 4.55228 0 4 0C3.44772 0 3 0.447715 3 1H5ZM12 19C12 19.5523 12.4477 20 13 20C13.5523 20 14 19.5523 14 19H12ZM13 1V0C12.4477 0 12 0.447715 12 1L13 1ZM8 1C8 0.447715 7.55228 0 7 0C6.44772 0 6 0.447715 6 1H8ZM2 1C2 0.447715 1.55228 0 1 0C0.447715 0 0 0.447715 0 1H2ZM13 10C12.4477 10 12 10.4477 12 11C12 11.5523 12.4477 12 13 12V10ZM5 19V1H3V19H5ZM14 19V1H12V19H14ZM6 1V6H8V1H6ZM2 6V1H0V6H2ZM4 8C2.89543 8 2 7.10457 2 6H0C0 8.20914 1.79086 10 4 10V8ZM6 6C6 7.10457 5.10457 8 4 8V10C6.20914 10 8 8.20914 8 6H6ZM13 12C15.7614 12 18 9.76142 18 7H16C16 8.65685 14.6569 10 13 10V12ZM13 2C14.6569 2 16 3.34315 16 5H18C18 2.23858 15.7614 0 13 0V2ZM16 5V7H18V5H16Z" fill="#0F0F0F"/>
</svg>
