<svg width="16" height="20" viewBox="0 0 16 20" fill="none" xmlns="http://www.w3.org/2000/svg">
<rect width="16" height="20" fill="#1E1E1E"/>
<g clip-path="url(#clip0_1_2294)">
<rect width="360" height="1778" transform="translate(-236 -1740)" fill="#F4F5F7"/>
<g filter="url(#filter0_d_1_2294)">
<rect width="360" height="56" transform="translate(-236 -18)" fill="white"/>
<path d="M1 4.2C1 3.07989 1 2.51984 1.21799 2.09202C1.40973 1.71569 1.71569 1.40973 2.09202 1.21799C2.51984 1 3.07989 1 4.2 1H11.8C12.9201 1 13.4802 1 13.908 1.21799C14.2843 1.40973 14.5903 1.71569 14.782 2.09202C15 2.51984 15 3.07989 15 4.2V15.8909C15 16.8955 15 17.3978 14.7916 17.6678C14.6102 17.9028 14.3338 18.0451 14.0371 18.0561C13.6963 18.0688 13.2875 17.7768 12.47 17.1929L8 14L3.52998 17.1929C2.71248 17.7768 2.30373 18.0688 1.96294 18.0561C1.66624 18.0451 1.38977 17.9028 1.20836 17.6678C1 17.3978 1 16.8955 1 15.8909V4.2Z" stroke="#0F0F0F" stroke-width="2" stroke-linecap="round" stroke-linejoin="round"/>
</g>
</g>
<defs>
<filter id="filter0_d_1_2294" x="-260" y="-38" width="408" height="104" filterUnits="userSpaceOnUse" color-interpolation-filters="sRGB">
<feFlood flood-opacity="0" result="BackgroundImageFix"/>
<feColorMatrix in="SourceAlpha" type="matrix" values="0 0 0 0 0 0 0 0 0 0 0 0 0 0 0 0 0 0 127 0" result="hardAlpha"/>
<feOffset dy="4"/>
<feGaussianBlur stdDeviation="12"/>
<feComposite in2="hardAlpha" operator="out"/>
<feColorMatrix type="matrix" values="0 0 0 0 0 0 0 0 0 0 0 0 0 0 0 0 0 0 0.17 0"/>
<feBlend mode="normal" in2="BackgroundImageFix" result="effect1_dropShadow_1_2294"/>
<feBlend mode="normal" in="SourceGraphic" in2="effect1_dropShadow_1_2294" result="shape"/>
</filter>
<clipPath id="clip0_1_2294">
<rect width="360" height="1778" fill="white" transform="translate(-236 -1740)"/>
</clipPath>
</defs>
</svg>
