<svg width="16" height="19" viewBox="0 0 16 19" fill="none" xmlns="http://www.w3.org/2000/svg">
<rect width="16" height="19" fill="#1E1E1E"/>
<g clip-path="url(#clip0_1_2294)">
<rect width="360" height="1917" transform="translate(-145 -729)" fill="#F4F5F7"/>
<rect width="360" height="529" transform="translate(-145 -491)" fill="white"/>
<rect width="328" height="56" transform="translate(-129 -18)" fill="white"/>
<g clip-path="url(#clip1_1_2294)">
<path d="M12 4L10.58 5.42L8.99 3.83V14H7.01V3.83L5.42 5.42L4 4L8 0L12 4ZM16 10V17C16 18.1 15.1 19 14 19H2C0.89 19 0 18.1 0 17V10C0 8.89 0.89 8 2 8H5V10H2V17H14V10H11V8H14C15.1 8 16 8.89 16 10Z" fill="#919FB2"/>
</g>
</g>
<defs>
<clipPath id="clip0_1_2294">
<rect width="360" height="1917" fill="white" transform="translate(-145 -729)"/>
</clipPath>
<clipPath id="clip1_1_2294">
<rect width="24" height="24" fill="white" transform="translate(-4 -2)"/>
</clipPath>
</defs>
</svg>
