<svg width="14" height="20" viewBox="0 0 14 20" fill="none" xmlns="http://www.w3.org/2000/svg">
<rect width="14" height="20" fill="#1E1E1E"/>
<g clip-path="url(#clip0_1_2294)">
<rect width="360" height="1356" transform="translate(-21 -474)" fill="#F4F5F7"/>
<rect width="360" height="706" transform="translate(-21 -356)" fill="white"/>
<path d="M6.99981 3C8.30603 3 9.41727 2.16519 9.8291 1L11.4 1C11.9601 1 12.2401 1 12.454 1.10899C12.6422 1.20487 12.7951 1.35785 12.891 1.54601C13 1.75992 13 2.03995 13 2.6L13 17.4C13 17.9601 13 18.2401 12.891 18.454C12.7951 18.6422 12.6422 18.7951 12.454 18.891C12.2401 19 11.9601 19 11.4 19L9.82929 19C9.41746 17.8348 8.30603 17 6.99981 17C5.69359 17 4.58254 17.8348 4.17071 19L2.6 19C2.03995 19 1.75992 19 1.54601 18.891C1.35785 18.7951 1.20487 18.6422 1.10899 18.454C0.999999 18.2401 0.999999 17.9601 0.999999 17.4L1 2.6C1 2.03995 1 1.75992 1.10899 1.54601C1.20487 1.35785 1.35785 1.20487 1.54601 1.10899C1.75992 1 2.03995 1 2.6 1L4.17051 1C4.58235 2.16519 5.69359 3 6.99981 3Z" stroke="#0F0F0F" stroke-width="2" stroke-linecap="round" stroke-linejoin="round"/>
</g>
<defs>
<clipPath id="clip0_1_2294">
<rect width="360" height="1356" fill="white" transform="translate(-21 -474)"/>
</clipPath>
</defs>
</svg>
