<svg width="20" height="14" viewBox="0 0 20 14" fill="none" xmlns="http://www.w3.org/2000/svg">
<path d="M3 7.00019C3 5.69397 2.16519 4.58273 1 4.1709V2.6C1 2.03995 1 1.75992 1.10899 1.54601C1.20487 1.35785 1.35785 1.20487 1.54601 1.10899C1.75992 1 2.03995 1 2.6 1H17.4C17.9601 1 18.2401 1 18.454 1.10899C18.6422 1.20487 18.7951 1.35785 18.891 1.54601C19 1.75992 19 2.03995 19 2.6V4.17071C17.8348 4.58254 17 5.69397 17 7.00019C17 8.30641 17.8348 9.41746 19 9.82929V11.4C19 11.9601 19 12.2401 18.891 12.454C18.7951 12.6422 18.6422 12.7951 18.454 12.891C18.2401 13 17.9601 13 17.4 13H2.6C2.03995 13 1.75992 13 1.54601 12.891C1.35785 12.7951 1.20487 12.6422 1.10899 12.454C1 12.2401 1 11.9601 1 11.4V9.82949C2.16519 9.41765 3 8.30641 3 7.00019Z" stroke="#FDA31C" stroke-width="2" stroke-linecap="round" stroke-linejoin="round"/>
</svg>
