<svg width="20" height="20" viewBox="0 0 20 20" fill="none" xmlns="http://www.w3.org/2000/svg">
<rect width="20" height="20" fill="#1E1E1E"/>
<rect width="360" height="689" transform="translate(-18 -431)" fill="#F4F5F7"/>
<rect width="360" height="58" transform="translate(-18 -19)" fill="white"/>
<path d="M17.9381 9C18.0694 9 18.2614 9.02587 18.3827 9.07612C18.504 9.12638 18.6142 9.20003 18.7071 9.29289C18.8 9.38575 18.8736 9.49599 18.9239 9.61732C18.9741 9.73864 19 9.86868 19 10C19 10.1313 18.9741 10.2614 18.9239 10.3827C18.8736 10.504 18.8 10.6142 18.7071 10.7071C18.6142 10.8 18.504 10.8736 18.3827 10.9239C18.2614 10.9741 18.0694 11 17.9381 11M18 10C18 5.58172 14.4183 2 10 2M18 10H14M18 10C18 11.3471 17.667 12.6165 17.0789 13.7303M2.06189 11C1.93057 11 1.73864 10.9741 1.61732 10.9239C1.49599 10.8736 1.38575 10.8 1.29289 10.7071C1.20003 10.6142 1.12638 10.504 1.07612 10.3827C1.02587 10.2614 1 10.1313 1 10C1 9.86868 1.02587 9.73864 1.07612 9.61732C1.12638 9.49599 1.20003 9.38575 1.29289 9.29289C1.38575 9.20003 1.49599 9.12638 1.61732 9.07612C1.73864 9.02587 1.93057 9 2.06189 9M2 10H6M2 10C2 7.79086 2.89543 5.79086 4.34315 4.34315M2 10C2 11.3476 2.33322 12.6175 2.92177 13.7315M3.57113 5.23788C3.46796 5.13471 3.3625 4.98884 3.30666 4.85404C3.25082 4.71923 3.22208 4.57475 3.22208 4.42883C3.22208 4.28292 3.25082 4.13844 3.30666 4.00363C3.3625 3.86882 3.44434 3.74633 3.54752 3.64316C3.65069 3.53998 3.77318 3.45814 3.90799 3.4023C4.0428 3.34646 4.18728 3.31772 4.33319 3.31772C4.47911 3.31772 4.62359 3.34646 4.7584 3.4023C4.8932 3.45814 5.01758 3.55654 5.12075 3.65971M14.8576 3.6431C14.9608 3.53992 15.1067 3.45808 15.2415 3.40224C15.3763 3.3464 15.5208 3.31766 15.6667 3.31766C15.8127 3.31766 15.9571 3.3464 16.092 3.40224C16.2268 3.45808 16.3492 3.53992 16.4524 3.6431C16.5556 3.74628 16.6374 3.86876 16.6933 4.00357C16.7491 4.13838 16.7779 4.28286 16.7779 4.42877C16.7779 4.57469 16.7491 4.71917 16.6933 4.85398C16.6374 4.98878 16.533 5.13601 16.4298 5.23918M9 2.06189C9 1.93057 9.02587 1.73864 9.07612 1.61732C9.12638 1.49599 9.20003 1.38575 9.29289 1.29289C9.38575 1.20003 9.49599 1.12638 9.61732 1.07612C9.73864 1.02587 9.86868 1 10 1C10.1313 1 10.2614 1.02587 10.3827 1.07612C10.504 1.12638 10.6142 1.20003 10.7071 1.29289C10.8 1.38575 10.8736 1.49599 10.9239 1.61732C10.9741 1.73864 11 1.93057 11 2.06189M10 2V6M10 2C7.79086 2 5.79086 2.89543 4.34315 4.34315M7 7L4.34315 4.34315M13 7L15.6667 4.35306M9.59376 10.914C9.71789 10.9693 9.85536 11 10 11C10.1446 11 10.2821 10.9693 10.4062 10.914M9.59376 10.914C9.24392 10.7583 9 10.4076 9 10C9 9.44772 9.44772 9 10 9C10.5523 9 11 9.44772 11 10C11 10.4076 10.7561 10.7583 10.4062 10.914M9.59376 10.914L6 19H14L10.4062 10.914M2.92177 13.7315C2.9035 13.7389 2.88542 13.7468 2.86753 13.7551C2.73529 13.8168 2.61649 13.9039 2.51791 14.0114C2.41933 14.119 2.34291 14.245 2.293 14.3821C2.2431 14.5192 2.22069 14.6648 2.22705 14.8106C2.23342 14.9563 2.26843 15.0994 2.3301 15.2317C2.39176 15.3639 2.47887 15.4827 2.58645 15.5813C2.69403 15.6799 2.81997 15.7563 2.95708 15.8062L3.71713 13.718C3.58001 13.6681 3.43441 13.6457 3.28864 13.652C3.16258 13.6576 3.03853 13.6845 2.92177 13.7315ZM17.0789 13.7303C16.9631 13.684 16.8401 13.6576 16.7152 13.6521C16.5695 13.6457 16.4239 13.6681 16.2867 13.7181L17.0468 15.8063C17.1839 15.7564 17.3098 15.6799 17.4174 15.5814C17.525 15.4828 17.6121 15.364 17.6738 15.2317C17.7354 15.0995 17.7705 14.9564 17.7768 14.8106C17.7832 14.6648 17.7608 14.5192 17.7109 14.3821C17.661 14.245 17.5845 14.1191 17.486 14.0115C17.3874 13.9039 17.2686 13.8168 17.1363 13.7551C17.1174 13.7463 17.0982 13.738 17.0789 13.7303ZM10 10H10.01" stroke="#0F0F0F" stroke-width="2" stroke-linecap="round" stroke-linejoin="round"/>
</svg>
