<svg width="190" height="176" viewBox="0 0 190 176" fill="none" xmlns="http://www.w3.org/2000/svg">
<path d="M122.181 143.96C122.173 143.547 122.206 143.608 122.081 143.608C122.107 143.727 122.14 143.844 122.181 143.96Z" fill="#FFE497"/>
<path d="M110.969 127.824C111.029 127.871 111.073 127.935 111.098 128.007C111.123 128.079 111.126 128.157 111.108 128.231C110.854 129.222 110.591 130.77 111.65 131.399C112.575 131.952 114.298 131.352 115.114 130.595C115.169 130.544 115.239 130.511 115.314 130.501C115.811 128.903 116.612 127.417 117.674 126.123C117.692 125.423 117.766 124.85 117.766 124.85C117.084 125.157 116.334 125.28 115.59 125.209C113.801 124.757 112.562 122.276 113.821 119.593C114.122 118.806 114.581 118.089 115.169 117.485C115.757 116.882 116.462 116.404 117.241 116.082C117.575 115.971 117.929 115.934 118.279 115.973C118.629 116.011 118.967 116.126 119.268 116.307C120.96 117.339 119.926 120.156 119.926 120.156C120.913 119.618 121.468 119.533 121.726 119.711L121.619 113.95C121.573 113.917 121.535 113.873 121.509 113.823C121.482 113.773 121.468 113.717 121.468 113.66C120.978 101.022 121.13 100.721 120.421 99.5514C120.095 99.0204 119.648 98.5738 119.117 98.2478C118.586 97.9219 117.985 97.7259 117.364 97.6758C117.254 97.6998 99.8632 101.046 97.0881 102.397L96.1184 102.94C94.6499 103.857 93.4486 105.144 92.6349 106.672C91.8213 108.2 91.4239 109.915 91.4828 111.645V161.401C102.173 159.956 112.578 156.882 122.336 152.284L122.211 145.595C121.738 145.025 121.42 144.342 121.289 143.613L115.121 143.65C114.743 143.65 114.709 143.161 114.732 143.261C114.554 141.65 114.404 140.034 114.35 138.413C109.651 139.831 102.897 134.639 104.916 127.759C105.071 127.232 105.473 126.012 105.97 125.76C106.484 125.491 106.914 125.867 110.969 127.824Z" fill="#FFE497"/>
<path d="M120.294 122.22C121.709 125.999 121.1 125.302 121.832 125.552L121.746 120.89C121.642 121.219 121.453 121.516 121.198 121.749C120.944 121.983 120.632 122.145 120.294 122.22Z" fill="#FFE497"/>
<path d="M121.725 119.71C121.462 119.533 120.908 119.618 119.926 120.156C121.631 115.51 116.488 113.903 113.821 119.593C112.564 122.275 113.799 124.757 115.589 125.208C116.334 125.28 117.084 125.157 117.766 124.85C117.766 124.85 117.692 125.424 117.674 126.123C117.655 126.875 117.674 128.48 118.423 128.606C119.55 128.794 121.71 127.667 121.71 126.821C121.369 125.253 120.898 123.715 120.302 122.225C121.481 122.103 122.305 120.101 121.725 119.71Z" fill="#F65F33"/>
<path d="M93.602 2.15361C92.1804 1.23368 90.5135 0.765472 88.8207 0.810598C87.1278 0.855723 85.4883 1.41207 84.1178 2.40642C72.2723 11.0171 63.7009 26.0191 58.6914 40.0139C62.4793 41.3349 85.3914 48.3897 119.799 39.3893C114.605 25.0149 106.545 10.0318 93.602 2.15361Z" fill="#F65F33"/>
<path d="M49.3491 109.685C49.1661 118.826 48.7982 143.273 53.063 151.372C57.6346 160.056 77.9905 164.792 90.7047 161.964V117.151C87.3627 117.487 66.5419 119.109 49.3491 109.685Z" fill="#F65F33"/>
<path d="M98.6592 50.6006C98.6874 50.652 98.7043 50.7087 98.7087 50.7672C98.7132 50.8256 98.7051 50.8843 98.685 50.9393C98.665 50.9944 98.6334 51.0445 98.5924 51.0864C98.5514 51.1283 98.5019 51.1609 98.4473 51.1821C85.8581 55.8867 86.136 74.533 98.7202 78.9388C98.7842 78.9595 98.8414 78.9972 98.8856 79.0479C98.9298 79.0986 98.9594 79.1604 98.9711 79.2266C108.302 82.2994 117.801 75.0297 117.801 64.8591C117.801 54.5247 108.025 47.266 98.6592 50.6006ZM110.271 55.2671C110.154 55.4909 109.969 55.6719 109.742 55.7843C109.516 55.8968 109.26 55.935 109.011 55.8935C108.762 55.852 108.532 55.7328 108.354 55.5531C108.177 55.3734 108.061 55.1423 108.022 54.8926C107.984 54.643 108.026 54.3876 108.141 54.163C108.256 53.9383 108.44 53.7558 108.665 53.6414C108.89 53.5271 109.146 53.4868 109.396 53.5263C109.645 53.5657 109.876 53.6829 110.055 53.8612C110.265 54.0229 110.404 54.2591 110.445 54.5209C110.485 54.7828 110.423 55.05 110.271 55.2671ZM113.086 73.3919C112.606 74.0144 111.986 72.9302 112.133 72.7453C114.979 69.0561 115.389 61.4536 111.848 56.6292C111.548 56.2245 112.639 55.6199 112.933 56.0196C116.449 60.8131 116.856 68.4935 113.086 73.3919Z" fill="#9CF0F0"/>
<path d="M186.154 118.806C184.025 117.078 181.309 116.244 178.577 116.48C177.492 113.833 175.716 111.525 173.434 109.799C171.153 108.072 168.449 106.989 165.606 106.664C165.32 104.774 164.503 103.004 163.25 101.56C161.998 100.116 160.36 99.057 158.529 98.5067C158.773 83.9344 138.894 79.7315 133.011 92.7769C132.811 93.2296 133.476 93.6253 133.682 93.1696C139.398 80.4909 158.275 85.0686 157.75 98.7935C157.751 98.8783 157.779 98.9607 157.83 99.0283C157.882 99.0958 157.954 99.1449 158.035 99.1682C159.822 99.6564 161.425 100.661 162.643 102.056C163.861 103.451 164.639 105.175 164.881 107.01C164.885 107.112 164.928 107.209 165 107.281C165.072 107.353 165.169 107.395 165.271 107.399C168.064 107.674 170.726 108.715 172.964 110.406C175.202 112.098 176.929 114.375 177.954 116.986C177.978 117.068 178.028 117.139 178.095 117.19C178.163 117.242 178.245 117.27 178.33 117.272C188.582 116.147 193.242 129.278 185.022 134.918C183.037 136.273 180.624 136.857 178.238 136.558C177.738 136.497 177.747 137.274 178.238 137.334C188.683 138.604 194.203 125.358 186.154 118.806Z" fill="#F65F33"/>
<path d="M169.661 139.321C170.35 138.246 170.721 136.998 170.733 135.721C170.744 134.445 170.395 133.191 169.725 132.103C169.056 131.016 168.093 130.139 166.947 129.574C165.802 129.009 164.52 128.779 163.249 128.909C164.933 120.209 157.658 115.428 152.588 118.038C152.143 118.267 152.537 118.937 152.98 118.709C157.609 116.325 164.335 121.038 162.392 129.246C162.377 129.311 162.379 129.38 162.397 129.445C162.416 129.51 162.451 129.569 162.498 129.617C162.546 129.664 162.605 129.699 162.67 129.718C162.735 129.737 162.804 129.739 162.869 129.724C164.095 129.515 165.355 129.688 166.478 130.219C167.602 130.75 168.535 131.614 169.151 132.693C169.767 133.773 170.035 135.015 169.921 136.252C169.806 137.489 169.313 138.661 168.51 139.609C168.273 139.885 168.492 140.383 168.888 140.259C169.673 140.003 170.516 139.981 171.313 140.194C172.111 140.407 172.83 140.847 173.383 141.46C173.936 142.074 174.299 142.834 174.428 143.65C174.557 144.465 174.447 145.3 174.111 146.054C173.911 146.507 174.577 146.904 174.782 146.448C175.164 145.639 175.323 144.742 175.241 143.85C175.16 142.959 174.842 142.106 174.32 141.379C173.797 140.652 173.09 140.077 172.271 139.716C171.452 139.354 170.551 139.218 169.661 139.321Z" fill="#F65F33"/>
<path d="M164.405 132.262C164.302 132.262 164.203 132.303 164.13 132.376C164.057 132.449 164.016 132.548 164.016 132.651C164.016 132.754 164.057 132.853 164.13 132.926C164.203 132.999 164.302 133.04 164.405 133.04C166.004 132.912 166.475 134.717 166.674 136.297C166.679 136.396 166.723 136.49 166.795 136.559C166.867 136.628 166.964 136.667 167.064 136.667C167.164 136.667 167.26 136.628 167.332 136.559C167.405 136.49 167.448 136.396 167.453 136.297C167.41 135.305 167.13 134.339 166.638 133.478C166.403 133.099 166.074 132.788 165.682 132.575C165.291 132.362 164.851 132.254 164.405 132.262ZM185.736 128.202C186.131 126.667 185.929 125.04 185.169 123.648C184.409 122.257 183.149 121.206 181.644 120.708C181.546 120.685 181.443 120.701 181.357 120.753C181.27 120.804 181.207 120.887 181.18 120.984C181.153 121.08 181.165 121.184 181.213 121.272C181.26 121.361 181.34 121.427 181.436 121.458C182.745 121.898 183.838 122.816 184.497 124.029C185.156 125.241 185.33 126.658 184.986 127.995C184.958 128.094 184.971 128.2 185.022 128.29C185.073 128.38 185.157 128.446 185.257 128.473C185.356 128.501 185.462 128.488 185.552 128.437C185.642 128.386 185.708 128.302 185.736 128.202ZM146.354 89.4918C145.854 89.5158 145.854 90.2912 146.354 90.2693C147.578 90.2412 148.768 90.6671 149.696 91.4649C150.623 92.2627 151.222 93.3758 151.377 94.5891C151.422 95.0827 152.2 95.0887 152.154 94.5891C151.996 93.1699 151.315 91.8605 150.242 90.9176C149.169 89.9747 147.783 89.4662 146.354 89.4918ZM135.641 79.8129C137.572 76.8822 140.268 74.5352 143.438 73.0259C143.89 72.811 143.496 72.1405 143.046 72.3554C139.758 73.9297 136.963 76.3727 134.964 79.4202C134.69 79.8399 135.367 80.2296 135.641 79.8129ZM141.455 79.5601C143.033 78.1888 144.875 77.1555 146.868 76.5243C147.344 76.3744 147.141 75.625 146.662 75.7749C144.542 76.4462 142.582 77.5466 140.905 79.0075C140.527 79.3393 141.078 79.8879 141.455 79.5601ZM46.2672 101.952C43.8151 101.21 41.2123 101.117 38.7133 101.681C36.2143 102.245 33.9044 103.448 32.0096 105.172C30.1147 106.895 28.6995 109.081 27.9024 111.514C27.1053 113.948 26.9535 116.547 27.4619 119.057C25.6461 119.981 24.1128 121.376 23.0232 123.097C5.50841 117.707 -7.54569 139.137 4.95258 152.269C3.9792 154.01 3.46329 155.97 3.45302 157.965C3.45302 158.068 3.494 158.167 3.56693 158.24C3.63986 158.312 3.73877 158.353 3.84191 158.353C3.94505 158.353 4.04396 158.312 4.11689 158.24C4.18982 158.167 4.23079 158.068 4.23079 157.965C4.23816 156.009 4.76719 154.09 5.76333 152.407C5.80481 152.332 5.82126 152.246 5.81029 152.161C5.79932 152.077 5.76149 151.998 5.70235 151.936C-6.66695 139.359 6.10223 118.393 23.0892 123.924C23.1718 123.945 23.2593 123.94 23.3385 123.908C23.4177 123.875 23.4842 123.818 23.528 123.745C24.6056 121.944 26.193 120.502 28.0897 119.602C28.1624 119.557 28.219 119.491 28.2512 119.412C28.2834 119.333 28.2895 119.246 28.2686 119.163C27.7402 116.77 27.8475 114.281 28.5796 111.943C29.3117 109.605 30.6433 107.499 32.442 105.834C34.2406 104.169 36.4438 103.004 38.8325 102.454C41.2212 101.904 43.7123 101.989 46.0583 102.699C46.1552 102.72 46.2565 102.703 46.3414 102.652C46.4264 102.601 46.4886 102.519 46.5152 102.424C46.5419 102.328 46.5311 102.226 46.485 102.139C46.4389 102.051 46.361 101.984 46.2672 101.952ZM42.4504 127.192C34.5447 125.537 29.5462 130.054 29.7672 135.599C28.4266 135.497 27.0805 135.702 25.8316 136.2C24.5827 136.697 23.464 137.474 22.5611 138.469C21.6582 139.465 20.9949 140.654 20.6219 141.945C20.2489 143.236 20.1761 144.595 20.409 145.918C20.4909 146.41 21.2407 146.202 21.1587 145.712C20.9576 144.5 21.0365 143.258 21.3896 142.082C21.7427 140.906 22.3605 139.825 23.1957 138.925C24.0308 138.024 25.0613 137.326 26.2079 136.885C27.3546 136.443 28.5872 136.27 29.8111 136.378C29.9111 136.366 29.7772 136.7 30.182 137.913C30.339 138.386 31.0908 138.183 30.9318 137.707C30.4563 136.288 30.4125 134.76 30.8057 133.316C31.199 131.872 32.0117 130.577 33.1412 129.595C36.6311 126.584 43.764 127.344 45.0206 129.682C45.2575 130.123 45.9293 129.731 45.6924 129.291C45.3385 128.725 44.8648 128.244 44.3046 127.881C43.7444 127.519 43.1115 127.284 42.4504 127.192Z" fill="#F65F33"/>
<path d="M9.69444 129.453C8.35143 130.053 7.22082 131.043 6.4506 132.296C5.68038 133.549 5.30644 135.004 5.37773 136.473C5.40972 136.972 6.18649 136.972 6.15549 136.473C6.08655 135.14 6.42605 133.819 7.12863 132.684C7.83122 131.55 8.86342 130.657 10.0873 130.125C10.5462 129.93 10.1503 129.259 9.69444 129.453ZM33.4493 124.06C33.5493 124.55 34.3011 124.343 34.1991 123.853C34.0903 123.35 34.1207 122.827 34.2872 122.34C34.4536 121.853 34.7497 121.421 35.1436 121.09C35.5376 120.759 36.0144 120.541 36.5228 120.461C37.0312 120.38 37.552 120.44 38.029 120.633C38.3779 120.763 38.5968 120.334 38.4678 120.063C35.8046 114.385 40.4952 109.279 44.9799 110.686C45.4577 110.837 45.6637 110.086 45.1868 109.936C40.4882 108.462 35.1748 113.387 37.4891 119.704C36.9097 119.616 36.3175 119.671 35.7642 119.864C35.2109 120.057 34.7133 120.383 34.3148 120.812C33.9164 121.242 33.6292 121.763 33.4783 122.329C33.3275 122.895 33.3175 123.489 33.4493 124.06ZM31.3 94.1878C35.1556 93.2711 39.1794 93.3339 43.0045 94.3707C43.103 94.3952 43.2072 94.3803 43.2948 94.329C43.3825 94.2778 43.4466 94.1943 43.4735 94.0964C43.5003 93.9986 43.4879 93.8941 43.4387 93.8053C43.3896 93.7165 43.3076 93.6505 43.2104 93.6212C39.2499 92.55 35.0841 92.4871 31.093 93.4384C30.6062 93.5543 30.8131 94.3037 31.3 94.1878ZM26.9973 100.048C29.5412 98.5968 32.4437 97.8947 35.3698 98.022C35.8696 98.044 35.8696 97.2666 35.3698 97.2446C32.3056 97.1171 29.2675 97.8558 26.6044 99.376C26.5153 99.4281 26.4506 99.5134 26.4244 99.6132C26.3983 99.713 26.4128 99.8191 26.4649 99.9081C26.517 99.9972 26.6024 100.062 26.7022 100.088C26.802 100.114 26.9082 100.1 26.9973 100.048ZM69.9694 163.215C64.1232 160.483 57.4572 164.024 56.3365 169.342C53.2484 168.237 49.2716 170.265 48.1479 175.513C48.048 176.001 48.7928 176.213 48.8977 175.72C49.9354 170.876 53.4524 169.073 56.2095 170.114C56.0378 171.341 56.329 172.588 57.0263 173.612C57.3172 174.011 57.992 173.626 57.6981 173.22C54.4481 168.743 61.8159 160.25 69.5775 163.882C70.0284 164.097 70.4233 163.427 69.9694 163.215ZM76.9593 164.312C76.1229 164.102 75.2391 164.193 74.4625 164.568C73.6858 164.943 73.0657 165.578 72.7104 166.364C72.355 167.149 72.2871 168.035 72.5185 168.865C72.7499 169.696 73.2658 170.419 73.9762 170.908C74.3861 171.196 74.776 170.524 74.3681 170.236C73.8155 169.845 73.417 169.274 73.2419 168.62C73.0667 167.966 73.1259 167.272 73.4091 166.658C73.6924 166.043 74.1819 165.547 74.7927 165.255C75.4035 164.964 76.0972 164.895 76.7534 165.061C77.2393 165.181 77.4462 164.431 76.9593 164.312Z" fill="#F65F33"/>
<path d="M62.3007 165.804C61.6395 166.258 61.0884 166.854 60.6877 167.548C60.2871 168.242 60.0471 169.017 59.9854 169.817C59.9854 169.92 60.0263 170.018 60.0993 170.091C60.1722 170.164 60.2711 170.205 60.3742 170.205C60.4774 170.205 60.5763 170.164 60.6492 170.091C60.7221 170.018 60.7631 169.92 60.7631 169.817C60.8191 169.152 61.0211 168.508 61.3546 167.93C61.6881 167.353 62.1449 166.856 62.6925 166.475C62.7795 166.421 62.8424 166.336 62.8685 166.237C62.8945 166.138 62.8816 166.033 62.8325 165.943C62.78 165.855 62.6947 165.791 62.5951 165.765C62.4956 165.739 62.3898 165.753 62.3007 165.804Z" fill="#F65F33"/>
<path d="M61.1115 138.931L43.5608 139.348L47.7825 141.296C48.4493 141.362 46.4099 141.438 65.6592 140.342L61.1115 138.931ZM42.1082 139.532C41.4084 141.506 33.4188 164.233 33.3828 164.333L39.1291 168.64C39.576 167.329 37.7045 173.196 47.5086 142.029C47.4446 142.004 48.0234 142.26 42.1082 139.532Z" fill="#F65F33"/>
<path d="M149.616 97.9023C148.367 97.1348 148.669 97.3397 131.488 96.7032C130.325 66.845 119.875 15.8224 93.3553 1.10219C91.9189 0.318303 90.296 -0.0600336 88.6608 0.00774006C87.0257 0.0755137 85.4397 0.586843 84.0731 1.48691C82.2245 2.77595 80.4873 4.21761 78.8797 5.79675C62.7115 21.0496 54.5869 44.9661 51.2529 67.0269C48.5847 84.684 47.9269 120.108 49.0006 135C49.0366 135.5 49.8144 135.5 49.7784 135C48.7487 120.919 49.5284 91.0533 50.6601 78.4725C53.1064 51.2584 62.3876 18.2027 84.1161 2.40624C85.4868 1.41145 87.1267 0.854856 88.82 0.809729C90.5132 0.764601 92.1805 1.23305 93.6023 2.15342C119.85 18.1297 129.016 66.1156 130.713 96.6772L126.45 96.5193C125.951 96.5013 125.951 97.2787 126.45 97.2967C148.733 98.1131 148.204 97.9622 149.189 98.5518C149.689 98.8552 150.101 99.2837 150.385 99.795C150.669 100.306 150.815 100.883 150.808 101.468C150.808 101.709 150.217 148.576 150.216 148.633C150.211 149.115 150.101 149.589 149.895 150.025C149.69 150.46 149.392 150.846 149.023 151.156C148.655 151.466 148.223 151.692 147.759 151.82C147.295 151.948 146.808 151.975 146.332 151.898L130.122 150.442C129.622 150.397 129.622 151.175 130.122 151.219L146.417 152.683C146.99 152.748 147.569 152.692 148.118 152.519C148.667 152.347 149.174 152.061 149.606 151.68C150.037 151.299 150.385 150.832 150.625 150.309C150.865 149.786 150.992 149.219 150.999 148.643C150.999 148.543 151.591 101.556 151.592 101.455C151.594 100.743 151.413 100.043 151.067 99.4209C150.721 98.799 150.221 98.2761 149.616 97.9023Z" fill="#1D1D1B"/>
<path d="M121.048 99.0858C120.647 98.4553 120.103 97.9278 119.461 97.5459C118.818 97.1641 118.095 96.9385 117.349 96.8874C116.754 96.8698 116.16 96.9399 115.586 97.0953C98.5216 101.004 97.4749 100.897 95.0376 102.72C93.7984 103.646 92.7722 104.826 92.0286 106.182C91.2849 107.538 90.841 109.037 90.7269 110.579C90.6759 111.311 90.7019 162.534 90.7019 162.534C90.7019 162.637 90.7429 162.736 90.8158 162.809C90.8888 162.882 90.9877 162.923 91.0908 162.923C91.194 162.923 91.2929 162.882 91.3658 162.809C91.4387 162.736 91.4797 162.637 91.4797 162.534V111.642C91.4233 109.912 91.8217 108.198 92.6351 106.671C93.4485 105.143 94.6485 103.856 96.1153 102.937C98.0967 101.683 97.8148 101.968 115.62 97.8847C115.998 97.782 116.384 97.7088 116.773 97.6658C117.495 97.6184 118.215 97.7687 118.858 98.1005C119.5 98.4322 120.039 98.9329 120.418 99.5485C121.525 101.376 121.103 113.571 121.618 113.947C121.673 113.994 121.741 114.025 121.813 114.035C121.885 114.044 121.958 114.034 122.024 114.003C122.09 113.972 122.146 113.924 122.185 113.862C122.224 113.801 122.245 113.73 122.245 113.657C121.731 100.676 121.919 100.461 121.048 99.0858ZM124.311 98.2854C124.28 97.7858 123.503 97.7858 123.534 98.2854L124.452 113.2C124.482 113.7 125.261 113.7 125.23 113.2C125.17 112.231 124.393 99.5924 124.311 98.2854Z" fill="#1D1D1B"/>
<path d="M155.259 146.682L150.445 140.438C150.245 140.231 149.975 140.104 149.688 140.083C149.4 140.062 149.115 140.147 148.887 140.323L146.513 142.153C145.224 140.74 143.592 139.683 141.776 139.083C142.236 139.391 142.725 139.818 142.736 140.252C143.905 140.876 144.971 141.679 145.893 142.631L141.233 146.223C140.463 145.131 138.709 142.548 138.7 141.212C138.42 141.05 138.231 140.928 138.231 140.928C138.231 140.928 138.795 142.327 138.245 142.626C138.869 144.074 139.663 145.442 140.61 146.701L138.665 148.2C138.439 148.374 138.284 148.625 138.23 148.905C138.176 149.185 138.226 149.475 138.371 149.72L143.046 155.627C143.126 155.761 143.231 155.877 143.355 155.97C143.48 156.063 143.622 156.13 143.773 156.167C143.924 156.204 144.081 156.211 144.235 156.187C144.388 156.163 144.536 156.108 144.668 156.027L155.03 148.485C155.178 148.393 155.303 148.27 155.398 148.123C155.492 147.977 155.552 147.811 155.574 147.638C155.596 147.466 155.579 147.29 155.524 147.125C155.47 146.959 155.379 146.808 155.259 146.682Z" fill="#D1A9FF"/>
<path d="M142.898 138.94C143.158 138.457 142.47 137.148 138.5 137.041C138.155 138.582 137.244 139.937 135.948 140.839C137.816 143.712 139.019 142.902 138.226 140.939C140.471 142.388 141.089 142.078 141.21 141.895C141.67 141.206 140.751 140.173 140.751 140.173C140.751 140.173 142.088 141.128 142.472 140.786C143.289 140.058 141.989 139.134 141.009 138.657C141.225 138.748 142.65 139.4 142.898 138.94ZM111.13 124.663C111.922 125.241 111.33 126.679 110.721 127.499C110.588 127.681 110.444 127.565 110.93 127.793C110.944 127.802 110.957 127.812 110.969 127.824C111.386 127.244 113.307 124.504 112.646 124.14C112.147 123.864 111.497 124.331 111.13 124.663ZM110.534 125.283C110.075 125.456 109.653 125.715 109.291 126.046C108.891 126.366 108.41 125.803 108.764 125.482C109.302 124.992 110.274 124.294 110.949 124.56C111.683 121.762 110.21 121.899 108.82 124.16C109.226 122.161 108.121 120.781 106.221 125.639L106.31 125.682C106.861 125.808 107.386 126.029 107.861 126.336L110.009 127.351C109.999 127.309 109.998 127.265 110.005 127.223C110.013 127.18 110.029 127.139 110.052 127.103C110.524 126.455 111.048 125.203 110.534 125.283Z" fill="#F65F33"/>
<path d="M127.262 143.26H127.053C126.36 143.691 125.839 143.589 122.079 143.607C122.224 144.32 122.595 144.969 123.138 145.455C123.681 145.941 124.366 146.239 125.092 146.305C125.191 146.332 125.275 146.398 125.326 146.487C125.377 146.577 125.39 146.683 125.363 146.783C125.336 146.882 125.27 146.966 125.18 147.017C125.09 147.068 124.984 147.081 124.885 147.054C123.994 146.942 123.163 146.547 122.515 145.927C121.867 145.306 121.436 144.494 121.286 143.61L115.118 143.646C115.018 143.643 114.923 143.602 114.851 143.533C114.78 143.463 114.737 143.369 114.732 143.269C113.259 143.347 107.934 143.968 105.834 148.865C103.385 154.576 112.67 162.225 112.67 162.225C112.67 162.225 117.261 162.125 118.588 161.205C118.588 161.205 112.363 153.149 114.2 150.089C115.656 147.664 117.593 147.263 119.704 148.315C118.93 147.473 118.141 146.64 117.293 145.876C116.92 145.54 117.472 144.992 117.842 145.326C124.435 151.27 133.008 164.712 132.948 165.218C134.015 165.302 137.03 165.412 138.28 164.162L127.262 143.26Z" fill="#F65F33"/>
<path d="M114.35 138.413C114.436 140.989 114.759 143.373 114.735 143.272C114.74 143.372 114.783 143.466 114.854 143.536C114.926 143.606 115.021 143.647 115.121 143.65L121.289 143.613C121.437 144.498 121.867 145.312 122.516 145.933C123.164 146.554 123.997 146.948 124.888 147.058C124.987 147.085 125.094 147.072 125.183 147.021C125.273 146.97 125.339 146.886 125.366 146.786C125.394 146.687 125.38 146.581 125.33 146.491C125.279 146.401 125.194 146.336 125.095 146.308C124.369 146.242 123.685 145.944 123.142 145.458C122.599 144.972 122.228 144.324 122.083 143.61L125.805 143.587C126.193 143.617 126.581 143.532 126.921 143.341C127.26 143.15 127.535 142.862 127.711 142.515C128.062 141.734 127.929 141.706 126.052 134.848C129.028 136.999 132.109 139 135.285 140.843C135.385 140.91 135.502 140.945 135.623 140.943C135.743 140.94 135.859 140.902 135.957 140.831C137.279 139.909 138.2 138.517 138.532 136.94C138.55 136.874 138.551 136.804 138.533 136.737C138.515 136.671 138.48 136.61 138.432 136.561C135.151 133.844 125.51 126.43 121.395 125.423C121.572 126.017 121.657 126.423 121.635 126.323C121.767 126.391 126.886 128.083 137.717 136.977C137.408 138.244 136.661 139.362 135.607 140.131C132.39 138.477 124.01 132.49 121.136 130.38C120.731 130.08 120.343 130.759 120.743 131.051C120.843 131.124 124.129 133.488 125.053 134.14C125.143 134.467 126.992 141.168 127.067 141.497C127.13 141.753 127.094 142.024 126.968 142.256C126.842 142.488 126.634 142.665 126.384 142.752C126.142 142.835 126.622 142.798 115.471 142.87C114.904 137.623 114.636 132.307 117.406 127.808C117.917 126.982 117.625 127.818 117.672 126.122C117.598 126.181 117.531 126.248 117.472 126.322C116.524 127.584 115.792 128.994 115.307 130.496C114.748 130.923 114.121 131.252 113.453 131.471C111.617 131.971 110.361 131.131 111.106 128.226C111.126 128.144 111.119 128.057 111.087 127.979C111.056 127.9 111 127.833 110.928 127.788C110.44 127.559 110.581 127.688 110.719 127.494C112.381 125.249 111.229 123.236 108.763 125.476C108.695 125.548 108.657 125.642 108.656 125.741C108.656 125.84 108.693 125.935 108.76 126.007C108.827 126.079 108.92 126.123 109.018 126.129C109.116 126.135 109.214 126.104 109.29 126.041C109.611 125.765 109.964 125.528 110.341 125.334C110.61 125.242 110.835 125.152 110.671 125.901C110.549 126.293 110.363 126.663 110.12 126.994C110.02 127.13 109.977 127.194 110.004 127.351C106.798 125.836 106.46 125.495 105.969 125.752C105.477 126.009 105.069 127.237 104.914 127.751C102.892 134.652 109.689 139.818 114.35 138.413ZM106.722 134.601C105.901 133.414 105.428 132.021 105.358 130.58C105.287 129.138 105.621 127.706 106.322 126.445C106.283 126.468 106.352 126.462 106.422 126.489C106.741 126.615 107.043 126.811 107.354 126.958L110.285 128.343C109.998 129.66 109.961 131.304 111.258 132.071C111.858 132.333 112.515 132.434 113.166 132.364C113.817 132.293 114.438 132.055 114.968 131.671C114.499 133.615 114.285 135.611 114.331 137.61C111.689 138.507 108.329 136.865 106.722 134.601ZM98.7207 78.9395C86.0934 74.5197 85.8905 55.8764 98.4477 51.1828C98.9106 51.011 98.6997 50.2625 98.2418 50.4334C84.8458 55.4367 85.2197 75.0344 98.5147 79.689C98.9926 79.8558 99.1735 79.0974 98.7207 78.9395ZM67.9219 140.233C61.7327 138.312 61.3328 138.182 61.2059 138.161C61.0789 138.14 51.8367 138.377 41.8767 138.612C41.7941 138.621 41.7155 138.652 41.6495 138.703C41.5834 138.753 41.5324 138.82 41.5018 138.898C41.4668 138.998 32.6744 164.005 32.5494 164.369C32.4245 164.733 32.3685 164.542 39.1555 169.627C39.3034 169.737 38.5966 169.809 47.26 168.289C47.3251 168.271 47.3845 168.237 47.4322 168.189C47.4799 168.142 47.5143 168.082 47.532 168.017C47.7319 167.392 54.056 147.167 54.115 146.972L68.0478 147.421C68.1507 147.42 68.249 147.379 68.3217 147.306C68.3944 147.234 68.4357 147.135 68.4367 147.033C68.1918 140.222 68.3158 140.355 67.9219 140.233ZM61.1069 138.934L65.6545 140.345C44.4299 141.555 49.4594 141.299 47.7779 141.299L43.5562 139.351L61.1069 138.934ZM39.1295 168.642L33.3832 164.335C33.4202 164.23 41.4098 141.492 42.1086 139.534C49.7593 143.064 46.8172 141.755 47.507 142.032C39.0865 168.803 39.6523 167.11 39.1295 168.642ZM46.8372 167.579L39.9182 168.799C49.1155 139.52 48.0158 143.007 48.2857 142.224L53.3722 146.698C46.2713 169.506 47.1371 166.575 46.8372 167.578V167.579ZM53.966 146.194L49.2724 142.061C49.3724 142.055 67.0861 141.045 67.444 141.019C67.506 142.755 67.644 146.496 67.644 146.631L53.966 146.194ZM132.95 165.223C133.012 164.702 124.453 151.297 117.844 145.332C117.474 144.998 116.921 145.546 117.295 145.881C120.454 148.729 126.642 155.984 132.233 165.384C132.276 165.452 132.339 165.504 132.413 165.534C132.488 165.565 132.569 165.572 132.648 165.554C132.726 165.536 132.797 165.495 132.851 165.436C132.905 165.377 132.94 165.303 132.95 165.223ZM137.53 165.715C135.908 166.12 134.241 166.321 132.569 166.314C132.569 166.314 128.691 165.907 128.283 166.414C127.875 166.922 128.691 169.371 137.772 168.352C140.429 168.051 139.334 165.25 137.53 165.715ZM117.634 162.346C116.012 162.752 114.345 162.953 112.673 162.946C112.673 162.946 108.795 162.539 108.387 163.046C107.979 163.553 108.795 166.004 117.876 164.982C120.533 164.685 119.435 161.885 117.634 162.346ZM119.264 116.307C120.955 117.339 119.921 120.156 119.921 120.156C121.988 119.03 122.176 119.875 121.706 121.001C121.599 121.31 121.412 121.585 121.165 121.799C120.918 122.013 120.618 122.159 120.297 122.221C120.297 122.221 120.387 122.461 120.521 122.831C125.682 123.314 126.15 120.541 126.241 119.805C126.341 118.988 123.997 118.937 123.997 118.937C127.196 117.2 126.686 115.203 123.897 116.133C123.897 116.133 126.346 114.909 125.684 114.042C125.021 113.174 121.245 113.43 119.255 114.142C118.793 114.289 118.371 114.541 118.021 114.877C117.671 115.213 117.404 115.625 117.238 116.08C117.572 115.97 117.926 115.933 118.276 115.972C118.625 116.012 118.962 116.126 119.264 116.307ZM116.969 118.204C117.419 118.429 117.182 118.727 117.49 118.903C117.579 118.955 117.685 118.969 117.785 118.943C117.884 118.917 117.969 118.853 118.022 118.764C118.217 118.392 117.746 117.557 117.175 117.451C117.075 117.424 116.969 117.437 116.879 117.489C116.789 117.54 116.723 117.625 116.696 117.725C116.668 117.824 116.682 117.931 116.733 118.021C116.785 118.111 116.869 118.176 116.969 118.204ZM115.867 120.356C116.449 120.356 116.449 119.282 115.867 119.282C115.284 119.282 115.285 120.356 115.867 120.356ZM113.64 122.869C115.013 123.359 117.382 122.138 116.739 121.493C116.299 121.052 115.557 122.451 114.14 122.193C113.881 122.145 113.486 121.982 113.372 122.393C113.348 122.491 113.362 122.595 113.412 122.684C113.462 122.772 113.543 122.839 113.64 122.869ZM149.222 141.655L148.804 149.021L139.726 148.852C139.627 148.857 139.533 148.9 139.464 148.973C139.396 149.045 139.357 149.141 139.357 149.241C139.357 149.34 139.396 149.436 139.464 149.508C139.533 149.581 139.627 149.624 139.726 149.629L149.17 149.806C149.272 149.803 149.369 149.761 149.441 149.689C149.514 149.616 149.556 149.519 149.558 149.417L149.999 141.655C150.027 141.161 149.251 141.156 149.222 141.655Z" fill="#1D1D1B"/>
</svg>
