<svg width="175" height="226" viewBox="0 0 175 226" fill="none" xmlns="http://www.w3.org/2000/svg">
<g filter="url(#filter0_f_796_3094)">
<ellipse cx="87.34" cy="126.874" rx="65.3029" ry="12.4561" fill="#1F88F8" fill-opacity="0.35"/>
</g>
<path d="M89.7572 142.09C127.158 142.09 157.477 112.112 157.477 75.1315C157.477 38.1512 127.158 8.17285 89.7572 8.17285C52.3564 8.17285 22.0371 38.1512 22.0371 75.1315C22.0371 112.112 52.3564 142.09 89.7572 142.09Z" fill="url(#paint0_linear_796_3094)"/>
<path d="M142.145 35.2393H56.1284V77.2101H142.145V35.2393Z" fill="url(#paint1_linear_796_3094)"/>
<path d="M142.145 35.2393H150.778C156.406 35.2393 161.804 37.45 165.784 41.385C169.764 45.3201 172 50.6572 172 56.2222C172 61.7872 169.764 67.1243 165.784 71.0594C161.804 74.9944 156.406 77.2051 150.778 77.2051H142.145V35.2393Z" fill="url(#paint2_linear_796_3094)"/>
<path d="M147.729 41.4131H152.668C156.466 41.4131 160.109 42.9051 162.795 45.5609C165.481 48.2167 166.99 51.8188 166.99 55.5747V56.8747C166.99 60.6306 165.481 64.2327 162.795 66.8885C160.109 69.5443 156.466 71.0363 152.668 71.0363H147.729V41.4131Z" fill="url(#paint3_linear_796_3094)"/>
<path d="M142.145 42.2832H63.3525V77.2103H142.145V42.2832Z" fill="url(#paint4_linear_796_3094)"/>
<rect x="35.5771" y="84.1973" width="31.9453" height="40.4523" fill="url(#paint5_linear_796_3094)"/>
<rect x="74.8086" y="84.1973" width="31.9453" height="40.4523" fill="url(#paint6_linear_796_3094)"/>
<rect x="114.04" y="84.1973" width="20.7364" height="40.4523" fill="url(#paint7_linear_796_3094)"/>
<path d="M142.145 35.2393H134.801V77.2101H142.145V35.2393Z" fill="url(#paint8_linear_796_3094)"/>
<path d="M74.8082 76.9932L67.5225 76.9932L67.5225 131.853L74.8082 131.853L74.8082 76.9932Z" fill="url(#paint9_linear_796_3094)"/>
<path fill-rule="evenodd" clip-rule="evenodd" d="M33.0378 76.9932H35.8895L35.8895 124.65H110.116V131.853L35.8895 131.853V131.853H33.0378C30.4165 131.853 28.2915 129.728 28.2915 127.107L28.2915 81.7394C28.2915 79.1181 30.4165 76.9932 33.0378 76.9932ZM110.116 84.197V76.9932H35.8896V84.197H110.116Z" fill="url(#paint10_linear_796_3094)"/>
<path fill-rule="evenodd" clip-rule="evenodd" d="M114.039 76.9932H111.5C108.879 76.9932 106.754 79.1181 106.754 81.7394L106.754 131.853H114.039V131.853H134.776L134.776 131.853H137.315C139.937 131.853 142.062 129.728 142.062 127.107L142.062 76.9932L134.776 76.9932H114.04H114.039ZM134.776 84.197H114.04L114.04 124.65H134.776L134.776 84.197Z" fill="url(#paint11_linear_796_3094)"/>
<path d="M61.8926 77.2998V77.3789V79.8751V98.0603H81.575C82.0992 98.0603 82.5242 97.6353 82.5242 97.111V79.8751V78.2491C82.5242 77.7248 82.0993 77.2998 81.575 77.2998H61.8926Z" fill="url(#paint12_linear_796_3094)"/>
<path d="M61.0674 77.2998C60.5432 77.2998 60.1182 77.7248 60.1182 78.2491V97.111C60.1182 97.6353 60.5432 98.0603 61.0674 98.0603H80.7498V77.2998H61.0674Z" fill="url(#paint13_linear_796_3094)"/>
<path d="M76.5313 79.2861H64.3409C63.2924 79.2861 62.4424 80.1361 62.4424 81.1846V94.0059C62.4424 95.0544 63.2924 95.9044 64.3409 95.9044H76.5313C77.5798 95.9044 78.4298 95.0544 78.4298 94.0059V81.1846C78.4298 80.1361 77.5798 79.2861 76.5313 79.2861Z" fill="url(#paint14_linear_796_3094)"/>
<g filter="url(#filter1_d_796_3094)">
<path d="M23.8081 63.2493L31.5669 82.1167C31.6728 82.3753 31.8294 82.6107 32.0276 82.8094C32.2257 83.0081 32.4616 83.1662 32.7217 83.2745C32.9818 83.3829 33.261 83.4395 33.5432 83.441C33.8254 83.4424 34.1052 83.3888 34.3664 83.2832L51.7536 76.2988C52.2823 76.086 52.704 75.6745 52.9261 75.1546C53.1483 74.6347 53.1527 74.0489 52.9384 73.5258L43.9698 51.7174C43.7547 51.1959 43.3391 50.7801 42.8142 50.5614C42.2893 50.3426 41.698 50.3388 41.1703 50.5508L26.7226 56.3588L23.8081 63.2493Z" fill="url(#paint15_linear_796_3094)"/>
</g>
<g filter="url(#filter2_d_796_3094)">
<path d="M146.69 52.1663L138.932 71.0336C138.826 71.2923 138.669 71.5277 138.471 71.7264C138.273 71.9251 138.037 72.0832 137.777 72.1915C137.517 72.2999 137.238 72.3565 136.955 72.3579C136.673 72.3594 136.393 72.3058 136.132 72.2002L118.745 65.2158C118.216 65.003 117.795 64.5915 117.572 64.0716C117.35 63.5517 117.346 62.9659 117.56 62.4428L126.529 40.6344C126.744 40.1128 127.159 39.6971 127.684 39.4784C128.209 39.2596 128.801 39.2558 129.328 39.4678L143.776 45.2758L146.69 52.1663Z" fill="url(#paint16_linear_796_3094)"/>
</g>
<path d="M23.8081 63.2499L28.7423 61.2677L26.7276 56.3594L23.8081 63.2499Z" fill="url(#paint17_linear_796_3094)"/>
<path d="M146.69 52.1669L141.756 50.1847L143.771 45.2764L146.69 52.1669Z" fill="url(#paint18_linear_796_3094)"/>
<path d="M72.5408 88.2921C73.177 87.8498 73.6541 87.2187 73.903 86.4903C74.1519 85.7618 74.1597 84.9739 73.9251 84.2408C73.6906 83.5077 73.2259 82.8675 72.5986 82.4132C71.9712 81.9588 71.2138 81.7139 70.4361 81.7139C69.6585 81.7139 68.901 81.9588 68.2737 82.4132C67.6463 82.8675 67.1817 83.5077 66.9471 84.2408C66.7126 84.9739 66.7203 85.7618 66.9692 86.4903C67.2182 87.2187 67.6953 87.8498 68.3315 88.2921L66.7617 93.6354H74.1055L72.5408 88.2921Z" fill="url(#paint19_linear_796_3094)"/>
<path d="M117.774 32.2198C117.774 32.9973 117.656 33.7704 117.424 34.5133C117.048 35.7045 116.384 36.7871 115.489 37.6669C115.227 37.9298 114.944 38.1727 114.644 38.3935C114.447 38.5454 114.24 38.6841 114.025 38.8087C113.81 38.9391 113.588 39.0579 113.36 39.1646C113.02 39.3305 112.667 39.4694 112.305 39.5799C111.553 39.8091 110.772 39.9258 109.985 39.9259H108.535V77.0723H68.042V31.4141C68.0486 29.5873 68.7854 27.8372 70.0919 26.5454C71.3983 25.2537 73.1683 24.5251 75.0159 24.5186H109.965C110.939 24.5149 111.904 24.6944 112.81 25.0475C113.061 25.1438 113.306 25.2544 113.545 25.3787C113.665 25.438 113.78 25.5023 113.895 25.5715C113.989 25.6228 114.081 25.6789 114.17 25.7395C114.642 26.0349 115.08 26.3814 115.474 26.7726C116.004 27.2978 116.456 27.8954 116.814 28.5471C117.056 28.9864 117.254 29.4483 117.404 29.9262L117.509 30.2969C117.574 30.5446 117.625 30.7954 117.664 31.0483C117.731 31.4354 117.768 31.827 117.774 32.2198Z" fill="url(#paint20_linear_796_3094)"/>
<path d="M117.774 32.2191C117.774 32.9966 117.656 33.7697 117.424 34.5127C117.27 34.9893 117.073 35.451 116.834 35.8918C116.472 36.5426 116.019 37.1399 115.489 37.6663C115.226 37.9292 114.944 38.1721 114.644 38.3929C114.444 38.5412 114.239 38.6747 114.024 38.8081C113.809 38.9384 113.587 39.0572 113.359 39.164C113.019 39.3278 112.666 39.4666 112.305 39.5792C111.553 39.8085 110.771 39.9251 109.985 39.9252H108.535V31.4134C108.538 30.0523 108.947 28.7223 109.711 27.5898C110.475 26.4574 111.56 25.5729 112.829 25.0469C113.079 25.1457 113.329 25.2545 113.564 25.3781C113.684 25.4374 113.799 25.5016 113.914 25.5708C114.009 25.6221 114.101 25.6782 114.189 25.7389C114.662 26.0343 115.099 26.3808 115.494 26.772C116.024 27.2972 116.475 27.8947 116.834 28.5465C117.074 28.9867 117.272 29.4485 117.424 29.9256L117.529 30.2963C117.594 30.5439 117.646 30.7947 117.684 31.0476C117.744 31.4353 117.774 31.8269 117.774 32.2191Z" fill="url(#paint21_linear_796_3094)"/>
<path d="M100.451 63.5479H74.8803C74.4524 63.5479 74.1055 63.8898 74.1055 64.3115C74.1055 64.7333 74.4524 65.0752 74.8803 65.0752H100.451C100.879 65.0752 101.226 64.7333 101.226 64.3115C101.226 63.8898 100.879 63.5479 100.451 63.5479Z" fill="#A5C4F1"/>
<path d="M100.451 55.7129H74.8803C74.4524 55.7129 74.1055 56.0548 74.1055 56.4766C74.1055 56.8984 74.4524 57.2403 74.8803 57.2403H100.451C100.879 57.2403 101.226 56.8984 101.226 56.4766C101.226 56.0548 100.879 55.7129 100.451 55.7129Z" fill="#A5C4F1"/>
<path d="M100.451 47.873H83.9839C83.5559 47.873 83.209 48.215 83.209 48.6367C83.209 49.0585 83.5559 49.4004 83.9839 49.4004H100.451C100.879 49.4004 101.226 49.0585 101.226 48.6367C101.226 48.215 100.879 47.873 100.451 47.873Z" fill="#A5C4F1"/>
<path d="M89.648 40.0342H74.7004C74.3718 40.0342 74.1055 40.2975 74.1055 40.6224V40.9733C74.1055 41.2982 74.3718 41.5616 74.7004 41.5616H89.648C89.9765 41.5616 90.2429 41.2982 90.2429 40.9733V40.6224C90.2429 40.2975 89.9765 40.0342 89.648 40.0342Z" fill="#A5C4F1"/>
<path d="M80.3795 47.873H74.8803C74.4524 47.873 74.1055 48.215 74.1055 48.6367C74.1055 49.0585 74.4524 49.4004 74.8803 49.4004H80.3795C80.8074 49.4004 81.1543 49.0585 81.1543 48.6367C81.1543 48.215 80.8074 47.873 80.3795 47.873Z" fill="#A5C4F1"/>
<path d="M35.8574 84.1973H38.3794V124.65H35.8574V84.1973Z" fill="url(#paint22_linear_796_3094)"/>
<path d="M74.8086 98.0508H77.0504V124.65H74.8086V98.0508Z" fill="url(#paint23_linear_796_3094)"/>
<path d="M114.04 84.1973H116.562V124.65H114.04V84.1973Z" fill="url(#paint24_linear_796_3094)"/>
<path d="M135.383 26.9095C135.383 28.1396 134.37 29.162 133.09 29.162C131.81 29.162 130.797 28.1396 130.797 26.9095C130.797 25.6793 131.81 24.657 133.09 24.657C134.37 24.657 135.383 25.6793 135.383 26.9095Z" stroke="url(#paint25_linear_796_3094)" stroke-width="2.61276"/>
<path d="M118.852 138.409C118.852 139.639 117.839 140.661 116.559 140.661C115.278 140.661 114.266 139.639 114.266 138.409C114.266 137.178 115.278 136.156 116.559 136.156C117.839 136.156 118.852 137.178 118.852 138.409Z" stroke="url(#paint26_linear_796_3094)" stroke-width="2.61276"/>
<path d="M20.2228 102.494C21.555 102.283 22.6208 103.58 22.1394 104.826L21.1269 107.448C20.6464 108.692 18.9838 108.953 18.133 107.917L16.343 105.739C15.4922 104.704 16.0903 103.148 17.4203 102.938L20.2228 102.494Z" fill="url(#paint27_linear_796_3094)"/>
<path d="M152.223 99.2761C151.89 97.9842 153.095 96.8205 154.394 97.1812L157.126 97.9404C158.424 98.3012 158.841 99.9163 157.876 100.847L155.845 102.808C154.88 103.739 153.257 103.287 152.924 101.995L152.223 99.2761Z" fill="url(#paint28_linear_796_3094)"/>
<path d="M82.5313 8.31723C83.0504 6.19128 86.0734 6.19127 86.5925 8.31723L86.6587 8.58838C86.8446 9.35012 87.4413 9.9437 88.204 10.1257L88.3845 10.1688C90.5244 10.6796 90.5244 13.7243 88.3845 14.235L88.204 14.2781C87.4413 14.4602 86.8446 15.0537 86.6587 15.8155L86.5925 16.0866C86.0734 18.2126 83.0504 18.2126 82.5313 16.0866L82.4651 15.8155C82.2792 15.0537 81.6825 14.4602 80.9198 14.2781L80.7393 14.235C78.5994 13.7243 78.5994 10.6796 80.7393 10.1688L80.9198 10.1257C81.6825 9.9437 82.2792 9.35012 82.4651 8.58839L82.5313 8.31723Z" fill="url(#paint29_linear_796_3094)"/>
<path d="M51.2398 137.913C51.7589 135.787 54.7819 135.787 55.301 137.913L55.3672 138.184C55.5531 138.946 56.1498 139.539 56.9125 139.721L57.093 139.765C59.2329 140.275 59.2329 143.32 57.093 143.831L56.9125 143.874C56.1498 144.056 55.5531 144.649 55.3672 145.411L55.301 145.682C54.7819 147.808 51.7589 147.808 51.2398 145.682L51.1736 145.411C50.9877 144.649 50.391 144.056 49.6283 143.874L49.4478 143.831C47.3078 143.32 47.3078 140.275 49.4478 139.765L49.6283 139.721C50.391 139.539 50.9877 138.946 51.1736 138.184L51.2398 137.913Z" fill="url(#paint30_linear_796_3094)"/>
<path d="M20.5344 201H25.0284C27.2404 201 28.6964 199.95 28.6964 198.214V198.186C28.6964 196.8 27.6744 196.086 26.4564 195.75C27.2824 195.414 28.1364 194.7 28.1364 193.356V193.328C28.1364 192.67 27.9124 192.138 27.4784 191.704C26.9044 191.144 25.9944 190.808 24.8184 190.808H20.5344V201ZM27.1424 193.482C27.1424 194.756 26.1204 195.428 24.6784 195.428H21.5004V191.69H24.7624C26.2884 191.69 27.1424 192.39 27.1424 193.454V193.482ZM27.7164 198.172C27.7164 199.39 26.6804 200.118 25.0424 200.118H21.5004V196.296H24.8324C26.7224 196.296 27.7164 196.968 27.7164 198.144V198.172ZM32.2348 193.524H31.2968V201H34.6568C36.5188 201 37.6108 200.048 37.6108 198.592V198.564C37.6108 197.108 36.5328 196.17 34.6848 196.17H32.2348V193.524ZM32.2348 196.982H34.6568C36.0008 196.982 36.6448 197.612 36.6448 198.578V198.592C36.6448 199.586 36.0008 200.174 34.6428 200.174H32.2348V196.982ZM39.0388 201H39.9768V193.524H39.0388V201ZM47.7435 201H48.6815V194.378H53.4135V201H54.3515V193.524H47.7435V201ZM60.7354 201.168C62.9754 201.168 64.6274 199.362 64.6274 197.262V197.234C64.6274 195.106 62.9894 193.342 60.7634 193.342C58.5234 193.342 56.8714 195.148 56.8714 197.262V197.29C56.8714 199.39 58.4954 201.168 60.7354 201.168ZM60.7634 200.314C59.1254 200.314 57.8514 198.956 57.8514 197.262V197.234C57.8514 195.554 59.0414 194.196 60.7354 194.196C62.3734 194.196 63.6334 195.568 63.6334 197.262V197.29C63.6334 198.942 62.4434 200.314 60.7634 200.314ZM68.0813 193.524H67.1433V201H68.0813V197.64H69.6213L72.5613 201H73.7653L70.3633 197.178L73.6813 193.524H72.5053L69.5793 196.8H68.0813V193.524ZM77.9215 201.168C79.2795 201.168 80.1615 200.524 80.6795 199.824V201H81.6035V196.38C81.6035 195.428 81.3375 194.742 80.8335 194.224C80.2735 193.678 79.4755 193.412 78.4395 193.412C77.3755 193.412 76.5775 193.664 75.7515 194.042L76.0455 194.826C76.7595 194.49 77.4595 194.252 78.3555 194.252C79.8255 194.252 80.6795 194.994 80.6795 196.408V196.702C79.9935 196.492 79.3215 196.38 78.3135 196.38C76.4095 196.38 75.0795 197.234 75.0795 198.802V198.83C75.0795 200.37 76.5215 201.168 77.9215 201.168ZM78.0475 200.37C76.9835 200.37 76.0455 199.796 76.0455 198.788V198.746C76.0455 197.752 76.8715 197.122 78.3415 197.122C79.3495 197.122 80.1055 197.29 80.7075 197.444V198.228C80.7075 199.502 79.5035 200.37 78.0475 200.37ZM89.2294 201H90.1674V197.654H94.9134V201H95.8514V193.524H94.9134V196.8H90.1674V193.524H89.2294V201ZM98.8747 201H99.7707L104.615 194.91V201H105.553V193.524H104.629L99.8127 199.614V193.524H98.8747V201ZM113.573 201H114.511V193.524H113.573V197.43C112.859 197.64 112.187 197.752 111.417 197.752C109.905 197.752 109.219 197.22 109.219 195.778V193.524H108.281V195.848C108.281 197.836 109.401 198.634 111.319 198.634C112.089 198.634 112.943 198.48 113.573 198.312V201ZM120.756 201.168C122.17 201.168 123.066 200.608 123.836 199.768L123.234 199.222C122.618 199.88 121.862 200.342 120.784 200.342C119.398 200.342 118.166 199.348 118.012 197.626H124.06C124.102 197.472 124.088 197.444 124.088 197.29C124.088 195.092 122.786 193.342 120.616 193.342C118.572 193.342 117.046 195.078 117.046 197.248V197.276C117.046 199.6 118.74 201.168 120.756 201.168ZM118.012 196.87C118.166 195.316 119.202 194.168 120.588 194.168C122.184 194.168 122.996 195.456 123.108 196.87H118.012ZM126.525 201H127.463V194.378H131.915V193.524H126.525V201ZM136.878 201.168C139.118 201.168 140.77 199.362 140.77 197.262V197.234C140.77 195.106 139.132 193.342 136.906 193.342C134.666 193.342 133.014 195.148 133.014 197.262V197.29C133.014 199.39 134.638 201.168 136.878 201.168ZM136.906 200.314C135.268 200.314 133.994 198.956 133.994 197.262V197.234C133.994 195.554 135.184 194.196 136.878 194.196C138.516 194.196 139.776 195.568 139.776 197.262V197.29C139.776 198.942 138.586 200.314 136.906 200.314ZM148.023 201H148.961V197.654H153.707V201H154.645V193.524H153.707V196.8H148.961V193.524H148.023V201ZM160.889 201.168C162.303 201.168 163.199 200.608 163.969 199.768L163.367 199.222C162.751 199.88 161.995 200.342 160.917 200.342C159.531 200.342 158.299 199.348 158.145 197.626H164.193C164.235 197.472 164.221 197.444 164.221 197.29C164.221 195.092 162.919 193.342 160.749 193.342C158.705 193.342 157.179 195.078 157.179 197.248V197.276C157.179 199.6 158.873 201.168 160.889 201.168ZM158.145 196.87C158.299 195.316 159.335 194.168 160.721 194.168C162.317 194.168 163.129 195.456 163.241 196.87H158.145ZM41.0996 221.168C43.3396 221.168 44.9916 219.362 44.9916 217.262V217.234C44.9916 215.106 43.3536 213.342 41.1276 213.342C38.8876 213.342 37.2356 215.148 37.2356 217.262V217.29C37.2356 219.39 38.8596 221.168 41.0996 221.168ZM41.1276 220.314C39.4896 220.314 38.2156 218.956 38.2156 217.262V217.234C38.2156 215.554 39.4056 214.196 41.0996 214.196C42.7376 214.196 43.9976 215.568 43.9976 217.262V217.29C43.9976 218.942 42.8076 220.314 41.1276 220.314ZM47.5075 221H48.4455V214.378H53.1775V221H54.1155V213.524H47.5075V221ZM60.3034 219.964L57.4054 213.524H56.3554L59.8414 220.972C59.3374 222.134 58.8754 222.526 58.1614 222.526C57.6574 222.526 57.3214 222.428 56.9434 222.246L56.6214 223.016C57.1254 223.254 57.5734 223.38 58.1754 223.38C59.2534 223.38 60.0234 222.82 60.6534 221.252L63.8454 213.524H62.8234L60.3034 219.964ZM69.4633 221.168C71.7453 221.168 73.2573 219.432 73.2573 217.346V217.332C73.2573 215.288 71.8713 213.72 69.6873 213.72C68.3293 213.72 67.2233 214.336 66.5933 215.33C66.8173 212.852 67.6853 211.914 69.8693 211.508L72.3473 211.102L72.1793 210.22L69.7433 210.64C66.9433 211.088 65.6553 212.586 65.6553 216.646V216.66C65.6553 218.228 66.0613 219.39 66.8453 220.174C67.4613 220.776 68.3433 221.168 69.4633 221.168ZM69.4773 220.328C67.9093 220.328 66.6353 219.152 66.6353 217.304C66.6353 215.666 67.8533 214.532 69.5753 214.532C71.1993 214.532 72.2773 215.694 72.2773 217.346V217.36C72.2773 219.054 71.1433 220.328 69.4773 220.328ZM78.9598 213.454H78.1058L74.6618 221H75.6978L78.5118 214.63L81.3398 221H82.3898L78.9598 213.454ZM84.6529 221H85.5489L90.3929 214.91V221H91.3309V213.524H90.4069L85.5909 219.614V213.524H84.6529V221ZM95.2908 213.524H94.3528V221H95.2908V217.64H96.8308L99.7708 221H100.975L97.5728 217.178L100.891 213.524H99.7148L96.7888 216.8H95.2908V213.524ZM106.019 221.168C108.259 221.168 109.911 219.362 109.911 217.262V217.234C109.911 215.106 108.273 213.342 106.047 213.342C103.807 213.342 102.155 215.148 102.155 217.262V217.29C102.155 219.39 103.779 221.168 106.019 221.168ZM106.047 220.314C104.409 220.314 103.135 218.956 103.135 217.262V217.234C103.135 215.554 104.325 214.196 106.019 214.196C107.657 214.196 108.917 215.568 108.917 217.262V217.29C108.917 218.942 107.727 220.314 106.047 220.314ZM112.426 221H116.192C117.914 221 118.992 220.286 118.992 218.998C118.992 217.976 118.32 217.444 117.312 217.178C118.152 216.912 118.698 216.394 118.698 215.442C118.698 214.224 117.746 213.524 116.178 213.524H112.426V221ZM117.746 215.512C117.746 216.296 117.144 216.828 115.982 216.828H113.35V214.308H116.108C117.172 214.308 117.746 214.77 117.746 215.512ZM118.026 218.97C118.026 219.712 117.368 220.216 116.178 220.216H113.35V217.598H116.052C117.34 217.598 118.026 218.13 118.026 218.97ZM123.793 221.168C125.151 221.168 126.033 220.524 126.551 219.824V221H127.475V216.38C127.475 215.428 127.209 214.742 126.705 214.224C126.145 213.678 125.347 213.412 124.311 213.412C123.247 213.412 122.449 213.664 121.623 214.042L121.917 214.826C122.631 214.49 123.331 214.252 124.227 214.252C125.697 214.252 126.551 214.994 126.551 216.408V216.702C125.865 216.492 125.193 216.38 124.185 216.38C122.281 216.38 120.951 217.234 120.951 218.802V218.83C120.951 220.37 122.393 221.168 123.793 221.168ZM123.919 220.37C122.855 220.37 121.917 219.796 121.917 218.788V218.746C121.917 217.752 122.743 217.122 124.213 217.122C125.221 217.122 125.977 217.29 126.579 217.444V218.228C126.579 219.502 125.375 220.37 123.919 220.37ZM133.905 213.454H133.051L129.607 221H130.643L133.457 214.63L136.285 221H137.335L133.905 213.454ZM139.599 221H140.495L145.339 214.91V221H146.277V213.524H145.353L140.537 219.614V213.524H139.599V221Z" fill="#8C95A6"/>
<defs>
<filter id="filter0_f_796_3094" x="0.264114" y="92.645" width="174.152" height="68.4581" filterUnits="userSpaceOnUse" color-interpolation-filters="sRGB">
<feFlood flood-opacity="0" result="BackgroundImageFix"/>
<feBlend mode="normal" in="SourceGraphic" in2="BackgroundImageFix" result="shape"/>
<feGaussianBlur stdDeviation="10.8865" result="effect1_foregroundBlur_796_3094"/>
</filter>
<filter id="filter1_d_796_3094" x="20.9604" y="50.3945" width="48.2731" height="52.9811" filterUnits="userSpaceOnUse" color-interpolation-filters="sRGB">
<feFlood flood-opacity="0" result="BackgroundImageFix"/>
<feColorMatrix in="SourceAlpha" type="matrix" values="0 0 0 0 0 0 0 0 0 0 0 0 0 0 0 0 0 0 127 0" result="hardAlpha"/>
<feOffset dx="6.64476" dy="10.4418"/>
<feGaussianBlur stdDeviation="4.74626"/>
<feComposite in2="hardAlpha" operator="out"/>
<feColorMatrix type="matrix" values="0 0 0 0 0.184314 0 0 0 0 0.254902 0 0 0 0 0.443137 0 0 0 0.15 0"/>
<feBlend mode="normal" in2="BackgroundImageFix" result="effect1_dropShadow_796_3094"/>
<feBlend mode="normal" in="SourceGraphic" in2="effect1_dropShadow_796_3094" result="shape"/>
</filter>
<filter id="filter2_d_796_3094" x="114.555" y="39.3115" width="48.2731" height="52.9811" filterUnits="userSpaceOnUse" color-interpolation-filters="sRGB">
<feFlood flood-opacity="0" result="BackgroundImageFix"/>
<feColorMatrix in="SourceAlpha" type="matrix" values="0 0 0 0 0 0 0 0 0 0 0 0 0 0 0 0 0 0 127 0" result="hardAlpha"/>
<feOffset dx="6.64476" dy="10.4418"/>
<feGaussianBlur stdDeviation="4.74626"/>
<feComposite in2="hardAlpha" operator="out"/>
<feColorMatrix type="matrix" values="0 0 0 0 0.184314 0 0 0 0 0.254902 0 0 0 0 0.443137 0 0 0 0.15 0"/>
<feBlend mode="normal" in2="BackgroundImageFix" result="effect1_dropShadow_796_3094"/>
<feBlend mode="normal" in="SourceGraphic" in2="effect1_dropShadow_796_3094" result="shape"/>
</filter>
<linearGradient id="paint0_linear_796_3094" x1="89.2352" y1="-13.6305" x2="90.5915" y2="221.518" gradientUnits="userSpaceOnUse">
<stop stop-color="#CAE0FF" stop-opacity="0"/>
<stop offset="1" stop-color="#BCD8FF"/>
</linearGradient>
<linearGradient id="paint1_linear_796_3094" x1="99.1365" y1="35.2393" x2="99.1365" y2="77.2101" gradientUnits="userSpaceOnUse">
<stop stop-color="#ABCCFF"/>
<stop offset="1" stop-color="#70A8FF"/>
</linearGradient>
<linearGradient id="paint2_linear_796_3094" x1="157.072" y1="35.2393" x2="157.072" y2="77.2051" gradientUnits="userSpaceOnUse">
<stop stop-color="#70A8FF"/>
<stop offset="1" stop-color="#5597FD"/>
</linearGradient>
<linearGradient id="paint3_linear_796_3094" x1="169.803" y1="72.006" x2="151.022" y2="46.8653" gradientUnits="userSpaceOnUse">
<stop stop-color="#EDF4FF"/>
<stop offset="1" stop-color="#ABCCFF"/>
</linearGradient>
<linearGradient id="paint4_linear_796_3094" x1="102.749" y1="42.2832" x2="102.749" y2="77.2103" gradientUnits="userSpaceOnUse">
<stop stop-color="#2A64BE"/>
<stop offset="1" stop-color="#6095E7"/>
</linearGradient>
<linearGradient id="paint5_linear_796_3094" x1="76.2093" y1="139.611" x2="37.3961" y2="102.6" gradientUnits="userSpaceOnUse">
<stop stop-color="#EDF4FF"/>
<stop offset="1" stop-color="#ABCCFF"/>
</linearGradient>
<linearGradient id="paint6_linear_796_3094" x1="108.435" y1="128.251" x2="69.3352" y2="111.869" gradientUnits="userSpaceOnUse">
<stop stop-color="#EDF4FF"/>
<stop offset="1" stop-color="#ABCCFF"/>
</linearGradient>
<linearGradient id="paint7_linear_796_3094" x1="143.183" y1="129.083" x2="107.144" y2="94.5961" gradientUnits="userSpaceOnUse">
<stop stop-color="#EDF4FF"/>
<stop offset="1" stop-color="#ABCCFF"/>
</linearGradient>
<linearGradient id="paint8_linear_796_3094" x1="138.473" y1="35.2393" x2="138.473" y2="77.2101" gradientUnits="userSpaceOnUse">
<stop stop-color="#ABCCFF"/>
<stop offset="1" stop-color="#70A8FF"/>
</linearGradient>
<linearGradient id="paint9_linear_796_3094" x1="58.5554" y1="93.8945" x2="53.623" y2="142.393" gradientUnits="userSpaceOnUse">
<stop stop-color="#ABCCFF"/>
<stop offset="1" stop-color="#70A8FF"/>
</linearGradient>
<linearGradient id="paint10_linear_796_3094" x1="26.8904" y1="86.6906" x2="106.713" y2="123.951" gradientUnits="userSpaceOnUse">
<stop stop-color="#ABCCFF"/>
<stop offset="1" stop-color="#70A8FF"/>
</linearGradient>
<linearGradient id="paint11_linear_796_3094" x1="169.804" y1="111.073" x2="119.645" y2="112.773" gradientUnits="userSpaceOnUse">
<stop stop-color="#70A8FF"/>
<stop offset="1" stop-color="#5597FD"/>
</linearGradient>
<linearGradient id="paint12_linear_796_3094" x1="72.2084" y1="77.2998" x2="72.2084" y2="98.0603" gradientUnits="userSpaceOnUse">
<stop stop-color="#70A8FF"/>
<stop offset="1" stop-color="#5597FD"/>
</linearGradient>
<linearGradient id="paint13_linear_796_3094" x1="70.434" y1="77.2998" x2="70.434" y2="98.0603" gradientUnits="userSpaceOnUse">
<stop stop-color="#ABCCFF"/>
<stop offset="1" stop-color="#70A8FF"/>
</linearGradient>
<linearGradient id="paint14_linear_796_3094" x1="70.4361" y1="79.2861" x2="70.4361" y2="95.9044" gradientUnits="userSpaceOnUse">
<stop stop-color="#70A8FF"/>
<stop offset="1" stop-color="#5597FD"/>
</linearGradient>
<linearGradient id="paint15_linear_796_3094" x1="49.9175" y1="65.1017" x2="30.2023" y2="63.1109" gradientUnits="userSpaceOnUse">
<stop stop-color="#C6DDFF"/>
<stop offset="1" stop-color="white"/>
</linearGradient>
<linearGradient id="paint16_linear_796_3094" x1="120.581" y1="54.0187" x2="140.296" y2="52.0279" gradientUnits="userSpaceOnUse">
<stop stop-color="#C6DDFF"/>
<stop offset="1" stop-color="white"/>
</linearGradient>
<linearGradient id="paint17_linear_796_3094" x1="26.2752" y1="56.3594" x2="26.2752" y2="63.2499" gradientUnits="userSpaceOnUse">
<stop stop-color="#EDF4FF"/>
<stop offset="1" stop-color="#ABCCFF"/>
</linearGradient>
<linearGradient id="paint18_linear_796_3094" x1="144.223" y1="45.2764" x2="144.223" y2="52.1669" gradientUnits="userSpaceOnUse">
<stop stop-color="#EDF4FF"/>
<stop offset="1" stop-color="#ABCCFF"/>
</linearGradient>
<linearGradient id="paint19_linear_796_3094" x1="68.6434" y1="90.2925" x2="75.9289" y2="90.5759" gradientUnits="userSpaceOnUse">
<stop stop-color="#2A64BE"/>
<stop offset="1" stop-color="#4B80D1"/>
</linearGradient>
<linearGradient id="paint20_linear_796_3094" x1="92.908" y1="24.5186" x2="92.908" y2="77.0723" gradientUnits="userSpaceOnUse">
<stop stop-color="#EDF4FF"/>
<stop offset="1" stop-color="#ABCCFF"/>
</linearGradient>
<linearGradient id="paint21_linear_796_3094" x1="114.32" y1="37.9263" x2="103.483" y2="29.4958" gradientUnits="userSpaceOnUse">
<stop stop-color="#EDF4FF"/>
<stop offset="1" stop-color="#ABCCFF"/>
</linearGradient>
<linearGradient id="paint22_linear_796_3094" x1="18.2035" y1="122.71" x2="71.2393" y2="116.684" gradientUnits="userSpaceOnUse">
<stop offset="0.09375" stop-color="#2A64BE"/>
<stop offset="1" stop-color="#2A64BE" stop-opacity="0"/>
</linearGradient>
<linearGradient id="paint23_linear_796_3094" x1="59.1162" y1="123.374" x2="105.767" y2="116.209" gradientUnits="userSpaceOnUse">
<stop offset="0.09375" stop-color="#2A64BE"/>
<stop offset="1" stop-color="#2A64BE" stop-opacity="0"/>
</linearGradient>
<linearGradient id="paint24_linear_796_3094" x1="96.3861" y1="122.71" x2="139.857" y2="126.568" gradientUnits="userSpaceOnUse">
<stop offset="0.09375" stop-color="#265FB8"/>
<stop offset="1" stop-color="#84B4FF"/>
</linearGradient>
<linearGradient id="paint25_linear_796_3094" x1="128.666" y1="24.6852" x2="139.805" y2="34.4485" gradientUnits="userSpaceOnUse">
<stop stop-color="#94BFFF"/>
<stop offset="1" stop-color="#4C94FE"/>
</linearGradient>
<linearGradient id="paint26_linear_796_3094" x1="112.135" y1="136.184" x2="123.273" y2="145.948" gradientUnits="userSpaceOnUse">
<stop stop-color="#94BFFF"/>
<stop offset="1" stop-color="#4C94FE"/>
</linearGradient>
<linearGradient id="paint27_linear_796_3094" x1="23.2237" y1="102.019" x2="15.3147" y2="108.519" gradientUnits="userSpaceOnUse">
<stop stop-color="#70A8FF"/>
<stop offset="1" stop-color="#5597FD"/>
</linearGradient>
<linearGradient id="paint28_linear_796_3094" x1="151.473" y1="96.3698" x2="158.573" y2="103.727" gradientUnits="userSpaceOnUse">
<stop stop-color="#70A8FF"/>
<stop offset="1" stop-color="#5597FD"/>
</linearGradient>
<linearGradient id="paint29_linear_796_3094" x1="84.5619" y1="0" x2="84.5619" y2="24.4039" gradientUnits="userSpaceOnUse">
<stop stop-color="#70A8FF"/>
<stop offset="1" stop-color="#5597FD"/>
</linearGradient>
<linearGradient id="paint30_linear_796_3094" x1="53.2704" y1="129.596" x2="53.2704" y2="154" gradientUnits="userSpaceOnUse">
<stop stop-color="#70A8FF"/>
<stop offset="1" stop-color="#5597FD"/>
</linearGradient>
</defs>
</svg>
